<svg width="1728" height="219" viewBox="0 0 1728 219" fill="none" xmlns="http://www.w3.org/2000/svg">
<g opacity="0.5" clip-path="url(#clip0_425_16585)">
<rect width="1767.68" height="89" transform="translate(-29.1172 118.87) rotate(-3.10895)" fill="#212121"/>
<path d="M29.6453 145.313L30.6888 164.524C30.8355 167.225 31.5978 169.194 32.9757 170.43C34.3826 171.664 36.2623 172.217 38.6147 172.09C40.9381 171.963 42.7178 171.211 43.9537 169.834C45.2186 168.454 45.7778 166.414 45.6311 163.713L44.5876 144.501L48.5519 144.286L49.593 163.454C49.7302 165.981 49.3379 168.143 48.4161 169.941C47.4927 171.709 46.1826 173.062 44.4858 173.999C42.818 174.934 40.9096 175.46 38.7604 175.577C36.6113 175.694 34.6426 175.378 32.8543 174.631C31.095 173.882 29.6607 172.678 28.5511 171.02C27.469 169.331 26.8594 167.223 26.7221 164.696L25.681 145.528L29.6453 145.313ZM59.1293 143.712L60.7785 174.075L56.8142 174.291L55.165 143.927L59.1293 143.712ZM91.7318 131.236L82.4265 180.327L78.5058 180.54L87.7675 131.451L91.7318 131.236ZM113.709 140.747L114.753 159.959C114.9 162.66 115.662 164.628 117.04 165.864C118.447 167.098 120.326 167.652 122.679 167.524C125.002 167.398 126.782 166.645 128.018 165.268C129.283 163.888 129.842 161.848 129.695 159.147L128.652 139.935L132.616 139.72L133.657 158.888C133.794 161.415 133.402 163.577 132.48 165.375C131.557 167.143 130.247 168.496 128.55 169.433C126.882 170.368 124.974 170.894 122.825 171.011C120.675 171.128 118.707 170.812 116.918 170.065C115.159 169.316 113.725 168.112 112.615 166.454C111.533 164.765 110.923 162.657 110.786 160.13L109.745 140.962L113.709 140.747ZM152.471 153.89L162.617 168.544L158.13 168.788L150.211 157.334L143.928 169.559L139.528 169.798L147.983 154.134L137.835 139.437L142.279 139.195L150.243 150.691L156.567 138.419L161.011 138.178L152.471 153.89ZM187.354 136.747C190.664 136.567 193.559 137.036 196.037 138.154C198.543 139.241 200.497 140.898 201.9 143.123C203.331 145.346 204.132 148.011 204.3 151.119C204.469 154.226 203.962 156.963 202.78 159.328C201.625 161.663 199.861 163.506 197.488 164.859C195.142 166.18 192.314 166.931 189.003 167.111L179.55 167.624L177.9 137.261L187.354 136.747ZM188.825 163.844C192.746 163.631 195.681 162.437 197.631 160.263C199.58 158.06 200.452 155.085 200.249 151.339C200.044 147.563 198.838 144.672 196.632 142.666C194.455 140.658 191.42 139.759 187.529 139.971L182.04 140.269L183.336 164.142L188.825 163.844ZM212.841 138.596L213.392 148.746L224.457 148.145L224.634 151.413L213.569 152.014L214.137 162.469L226.509 161.797L226.687 165.064L210.35 165.951L208.699 135.544L225.035 134.657L225.213 137.924L212.841 138.596ZM242.329 164.52C240.325 164.629 238.506 164.378 236.871 163.768C235.263 163.127 233.975 162.207 233.007 161.007C232.037 159.778 231.493 158.337 231.374 156.683L235.599 156.453C235.822 157.868 236.468 159.042 237.538 159.974C238.636 160.876 240.172 161.273 242.147 161.166C244.035 161.063 245.491 160.518 246.515 159.531C247.566 158.512 248.052 157.262 247.972 155.781C247.908 154.62 247.538 153.693 246.859 153.002C246.181 152.31 245.352 151.802 244.373 151.476C243.395 151.151 242.08 150.815 240.43 150.467C238.398 150.053 236.757 149.618 235.509 149.162C234.29 148.704 233.215 147.946 232.284 146.89C231.38 145.803 230.877 144.316 230.774 142.428C230.684 140.773 231.026 139.283 231.799 137.959C232.572 136.636 233.694 135.585 235.166 134.806C236.668 134.025 238.406 133.581 240.381 133.474C243.227 133.319 245.589 133.904 247.467 135.23C249.374 136.553 250.507 138.385 250.868 140.725L246.511 140.962C246.303 139.808 245.638 138.824 244.516 138.012C243.392 137.17 241.945 136.797 240.173 136.893C238.518 136.983 237.191 137.492 236.193 138.42C235.193 139.319 234.735 140.538 234.819 142.077C234.879 143.181 235.232 144.065 235.88 144.729C236.557 145.391 237.356 145.886 238.277 146.215C239.225 146.513 240.539 146.849 242.22 147.224C244.254 147.667 245.896 148.131 247.145 148.617C248.394 149.073 249.484 149.844 250.417 150.93C251.348 151.986 251.866 153.473 251.97 155.389C252.05 156.871 251.734 158.286 251.021 159.635C250.308 160.985 249.204 162.108 247.708 163.005C246.213 163.902 244.42 164.407 242.329 164.52ZM260.568 132.77L262.218 163.134L258.253 163.35L256.604 132.986L260.568 132.77ZM290.804 139.954C289.866 138.228 288.572 136.929 286.923 136.058C285.272 135.157 283.386 134.764 281.266 134.879C279.146 134.995 277.256 135.592 275.596 136.673C273.964 137.723 272.703 139.189 271.815 141.073C270.955 142.925 270.589 145.043 270.718 147.424C270.848 149.805 271.441 151.87 272.497 153.619C273.582 155.366 274.994 156.688 276.732 157.583C278.497 158.449 280.44 158.824 282.56 158.709C285.523 158.548 287.914 157.53 289.735 155.654C291.555 153.778 292.543 151.321 292.699 148.284L280.588 148.941L280.413 145.718L296.749 144.83L296.915 147.88C296.818 150.39 296.159 152.727 294.936 154.891C293.712 157.025 292.044 158.762 289.932 160.1C287.819 161.409 285.426 162.136 282.754 162.281C279.937 162.434 277.331 161.92 274.937 160.739C272.541 159.53 270.597 157.786 269.104 155.507C267.64 153.227 266.828 150.606 266.667 147.644C266.506 144.682 267.03 141.988 268.238 139.563C269.474 137.107 271.218 135.163 273.47 133.73C275.721 132.268 278.255 131.46 281.072 131.307C284.296 131.132 287.185 131.776 289.741 133.239C292.325 134.701 294.262 136.853 295.553 139.696L290.804 139.954ZM326.753 159.629L322.789 159.844L305.531 136.533L306.845 160.71L302.88 160.926L301.229 130.518L305.193 130.303L322.448 153.571L321.137 129.437L325.102 129.222L326.753 159.629Z" fill="#BEBEBE"/>
<path d="M416.382 124.308L416.557 127.531L403.358 128.248L403.914 138.486L414.63 137.904L414.805 141.127L404.089 141.709L404.832 155.388L400.868 155.604L399.218 125.24L416.382 124.308ZM438.807 153.543L430.901 141.52L426.109 141.78L426.784 154.196L422.819 154.411L421.17 124.048L430.972 123.515C433.266 123.391 435.219 123.678 436.83 124.377C438.47 125.074 439.718 126.069 440.575 127.363C441.432 128.656 441.906 130.16 442 131.873C442.113 133.964 441.603 135.841 440.47 137.505C439.366 139.167 437.623 140.325 435.241 140.979L443.556 153.285L438.807 153.543ZM425.937 138.6L431.774 138.283C433.923 138.166 435.507 137.556 436.525 136.452C437.541 135.319 438.001 133.867 437.905 132.095C437.807 130.295 437.194 128.93 436.066 128.001C434.966 127.07 433.328 126.664 431.15 126.782L425.312 127.099L425.937 138.6ZM463.106 152.529C460.289 152.682 457.683 152.168 455.289 150.987C452.893 149.778 450.949 148.034 449.456 145.755C447.991 143.446 447.177 140.811 447.017 137.849C446.856 134.886 447.379 132.193 448.587 129.768C449.823 127.312 451.567 125.368 453.82 123.934C456.07 122.472 458.604 121.665 461.421 121.512C464.268 121.357 466.889 121.885 469.285 123.095C471.679 124.275 473.608 126.006 475.072 128.285C476.535 130.565 477.349 133.201 477.511 136.192C477.674 139.184 477.151 141.892 475.943 144.317C474.734 146.742 473.005 148.685 470.754 150.148C468.502 151.581 465.952 152.374 463.106 152.529ZM462.919 149.088C465.039 148.972 466.915 148.375 468.546 147.296C470.205 146.216 471.465 144.735 472.324 142.853C473.212 140.97 473.591 138.823 473.46 136.412C473.327 133.973 472.718 131.879 471.633 130.132C470.575 128.355 469.177 127.018 467.439 126.122C465.701 125.226 463.758 124.837 461.608 124.953C459.459 125.07 457.569 125.668 455.938 126.747C454.308 127.826 453.048 129.307 452.16 131.19C451.3 133.043 450.935 135.189 451.068 137.628C451.199 140.039 451.793 142.133 452.851 143.911C453.938 145.687 455.35 147.023 457.088 147.919C458.856 148.813 460.799 149.203 462.919 149.088ZM507.443 149.815L503.479 150.03L486.221 126.719L487.535 150.896L483.57 151.112L481.919 120.704L485.883 120.489L503.138 143.757L501.827 119.623L505.792 119.408L507.443 149.815ZM531.24 118.069L531.416 121.293L523.139 121.742L524.613 148.882L520.648 149.098L519.174 121.958L510.854 122.41L510.678 119.186L531.24 118.069ZM553.365 129.625L553.548 132.98L536.166 133.924L535.983 130.57L553.365 129.625ZM564.254 119.509L564.805 129.66L575.87 129.059L576.048 132.326L564.982 132.927L565.55 143.382L577.922 142.71L578.1 145.977L561.763 146.865L560.112 116.457L576.448 115.57L576.626 118.837L564.254 119.509ZM607.971 144.355L604.007 144.57L586.749 121.258L588.063 145.436L584.098 145.652L582.447 115.244L586.411 115.029L603.666 138.297L602.355 114.163L606.32 113.948L607.971 144.355ZM622.533 113.111C625.844 112.931 628.738 113.4 631.217 114.518C633.723 115.605 635.677 117.261 637.079 119.486C638.511 121.709 639.311 124.375 639.48 127.482C639.649 130.59 639.142 133.326 637.959 135.692C636.805 138.026 635.041 139.87 632.667 141.222C630.321 142.544 627.493 143.295 624.182 143.474L614.729 143.988L613.08 113.624L622.533 113.111ZM624.005 140.207C627.926 139.994 630.861 138.801 632.811 136.627C634.759 134.424 635.632 131.449 635.428 127.702C635.223 123.927 634.018 121.036 631.811 119.029C629.634 117.021 626.6 116.123 622.708 116.334L617.219 116.632L618.516 140.505L624.005 140.207Z" fill="#BEBEBE"/>
<path d="M727.761 122.163C728.874 122.277 729.9 122.673 730.84 123.35C731.809 124.026 732.584 124.887 733.165 125.933C733.775 126.977 734.113 128.11 734.18 129.329C734.263 130.869 733.947 132.284 733.231 133.575C732.513 134.838 731.418 135.873 729.948 136.681C728.504 137.459 726.766 137.902 724.733 138.013L713.407 138.628L711.757 108.264L722.648 107.673C724.71 107.561 726.486 107.814 727.976 108.432C729.465 109.021 730.603 109.877 731.393 110.999C732.182 112.121 732.616 113.408 732.695 114.861C732.792 116.661 732.38 118.184 731.457 119.428C730.562 120.642 729.33 121.553 727.761 122.163ZM716.434 121.162L723.099 120.8C724.958 120.699 726.372 120.185 727.341 119.258C728.31 118.332 728.753 117.099 728.669 115.56C728.586 114.021 728.012 112.843 726.948 112.027C725.884 111.211 724.394 110.855 722.477 110.959L715.899 111.316L716.434 121.162ZM724.207 134.765C726.182 134.657 727.696 134.109 728.749 133.12C729.802 132.13 730.284 130.808 730.194 129.153C730.103 127.468 729.45 126.178 728.236 125.283C727.021 124.359 725.44 123.949 723.494 124.055L716.611 124.429L717.193 135.145L724.207 134.765ZM757.705 129.45L744.461 130.169L742.389 137.054L738.207 137.281L747.545 106.495L752.119 106.247L764.693 135.842L760.511 136.07L757.705 129.45ZM756.397 126.288L750.075 111.251L745.419 126.884L756.397 126.288ZM767.171 120.459C767.01 117.497 767.533 114.803 768.742 112.378C769.948 109.924 771.662 107.967 773.884 106.506C776.135 105.044 778.669 104.237 781.486 104.084C784.797 103.904 787.73 104.546 790.285 106.009C792.841 107.472 794.764 109.64 796.056 112.511L791.308 112.769C790.366 110.985 789.07 109.643 787.419 108.742C785.797 107.84 783.883 107.449 781.675 107.569C779.555 107.684 777.68 108.281 776.049 109.36C774.418 110.439 773.173 111.919 772.314 113.801C771.454 115.654 771.09 117.8 771.222 120.239C771.353 122.65 771.947 124.744 773.005 126.521C774.061 128.27 775.459 129.592 777.197 130.488C778.935 131.384 780.864 131.775 782.984 131.659C785.191 131.54 787.053 130.958 788.569 129.914C790.113 128.84 791.256 127.365 791.999 125.49L796.747 125.232C795.772 128.198 794.094 130.546 791.712 132.278C789.329 133.98 786.482 134.921 783.171 135.101C780.354 135.254 777.748 134.74 775.354 133.559C772.987 132.348 771.071 130.603 769.608 128.323C768.144 126.043 767.332 123.422 767.171 120.459ZM819.596 132.86L806.341 119.686L807.093 133.54L803.129 133.755L801.48 103.391L805.444 103.176L806.208 117.247L817.99 102.494L823 102.222L810.06 118.174L824.78 132.579L819.596 132.86ZM831.698 104.983L832.249 115.133L843.314 114.532L843.492 117.8L832.426 118.401L832.994 128.856L845.366 128.184L845.544 131.451L829.207 132.338L827.556 101.931L843.892 101.044L844.07 104.311L831.698 104.983ZM875.415 129.829L871.451 130.044L854.193 106.732L855.507 130.91L851.542 131.125L849.891 100.718L853.855 100.503L871.11 123.771L869.799 99.6366L873.764 99.4213L875.415 129.829ZM889.977 98.5843C893.288 98.4045 896.182 98.8735 898.661 99.9914C901.167 101.079 903.121 102.735 904.523 104.96C905.955 107.183 906.755 109.849 906.924 112.956C907.092 116.064 906.586 118.8 905.403 121.165C904.249 123.5 902.485 125.344 900.111 126.696C897.765 128.018 894.937 128.768 891.626 128.948L882.173 129.462L880.524 99.0978L889.977 98.5843ZM891.449 125.681C895.369 125.468 898.305 124.274 900.255 122.1C902.203 119.897 903.076 116.923 902.872 113.176C902.667 109.401 901.462 106.51 899.255 104.503C897.078 102.495 894.044 101.597 890.152 101.808L884.663 102.106L885.96 125.979L891.449 125.681Z" fill="#BEBEBE"/>
<path d="M977.707 109.024C977.546 106.062 978.07 103.368 979.278 100.943C980.485 98.4891 982.199 96.5318 984.421 95.0712C986.671 93.6091 989.205 92.8015 992.022 92.6485C995.333 92.4687 998.266 93.1104 1000.82 94.5736C1003.38 96.0369 1005.3 98.2044 1006.59 101.076L1001.84 101.334C1000.9 99.5501 999.606 98.2078 997.955 97.3072C996.334 96.4049 994.419 96.0137 992.212 96.1336C990.092 96.2487 988.216 96.8458 986.585 97.9247C984.955 99.0036 983.71 100.484 982.851 102.366C981.99 104.218 981.626 106.365 981.758 108.804C981.889 111.215 982.484 113.309 983.542 115.086C984.598 116.835 985.995 118.157 987.733 119.053C989.471 119.949 991.4 120.339 993.52 120.224C995.727 120.104 997.589 119.523 999.105 118.479C1000.65 117.405 1001.79 115.93 1002.54 114.055L1007.28 113.797C1006.31 116.762 1004.63 119.111 1002.25 120.842C999.865 122.545 997.018 123.486 993.707 123.666C990.89 123.819 988.284 123.305 985.89 122.124C983.523 120.913 981.608 119.167 980.144 116.887C978.68 114.608 977.868 111.986 977.707 109.024ZM1015.89 91.7452L1016.94 110.957C1017.08 113.658 1017.85 115.626 1019.22 116.862C1020.63 118.096 1022.51 118.65 1024.86 118.522C1027.19 118.396 1028.97 117.644 1030.2 116.266C1031.47 114.886 1032.03 112.846 1031.88 110.145L1030.84 90.9336L1034.8 90.7183L1035.84 109.886C1035.98 112.413 1035.59 114.575 1034.66 116.373C1033.74 118.142 1032.43 119.494 1030.73 120.431C1029.07 121.367 1027.16 121.893 1025.01 122.009C1022.86 122.126 1020.89 121.811 1019.1 121.063C1017.34 120.314 1015.91 119.11 1014.8 117.452C1013.72 115.763 1013.11 113.655 1012.97 111.129L1011.93 91.9605L1015.89 91.7452ZM1052.71 120.505C1050.7 120.614 1048.88 120.363 1047.25 119.753C1045.64 119.112 1044.35 118.192 1043.38 116.992C1042.41 115.763 1041.87 114.321 1041.75 112.667L1045.98 112.438C1046.2 113.853 1046.85 115.027 1047.92 115.959C1049.01 116.861 1050.55 117.258 1052.52 117.151C1054.41 117.048 1055.87 116.503 1056.89 115.515C1057.94 114.497 1058.43 113.247 1058.35 111.766C1058.29 110.604 1057.91 109.678 1057.24 108.986C1056.56 108.295 1055.73 107.787 1054.75 107.461C1053.77 107.136 1052.46 106.799 1050.81 106.452C1048.77 106.038 1047.13 105.603 1045.89 105.146C1044.67 104.688 1043.59 103.931 1042.66 102.875C1041.76 101.788 1041.25 100.3 1041.15 98.4127C1041.06 96.7573 1041.4 95.2677 1042.18 93.9441C1042.95 92.6205 1044.07 91.5692 1045.54 90.7901C1047.04 90.0095 1048.78 89.5656 1050.76 89.4583C1053.6 89.3037 1055.97 89.8891 1057.84 91.2144C1059.75 92.538 1060.88 94.3698 1061.24 96.7096L1056.89 96.9462C1056.68 95.7924 1056.01 94.8091 1054.89 93.9962C1053.77 93.1542 1052.32 92.7813 1050.55 92.8776C1048.89 92.9675 1047.57 93.4765 1046.57 94.4045C1045.57 95.3035 1045.11 96.5227 1045.2 98.0619C1045.26 99.1655 1045.61 100.049 1046.26 100.713C1046.93 101.375 1047.73 101.871 1048.65 102.2C1049.6 102.498 1050.92 102.834 1052.6 103.209C1054.63 103.652 1056.27 104.116 1057.52 104.602C1058.77 105.058 1059.86 105.829 1060.79 106.914C1061.73 107.971 1062.24 109.457 1062.35 111.374C1062.43 112.855 1062.11 114.27 1061.4 115.62C1060.68 116.969 1059.58 118.093 1058.09 118.989C1056.59 119.886 1054.8 120.391 1052.71 120.505ZM1085.67 87.9553L1085.84 91.179L1077.57 91.6286L1079.04 118.769L1075.08 118.984L1073.6 91.8439L1065.28 92.2958L1065.11 89.0721L1085.67 87.9553ZM1105.98 117.611C1103.16 117.764 1100.56 117.25 1098.16 116.07C1095.77 114.86 1093.82 113.116 1092.33 110.838C1090.87 108.529 1090.05 105.893 1089.89 102.931C1089.73 99.9685 1090.25 97.2749 1091.46 94.8499C1092.7 92.3943 1094.44 90.4499 1096.69 89.0168C1098.95 87.5546 1101.48 86.7471 1104.3 86.5941C1107.14 86.4395 1109.76 86.9671 1112.16 88.1768C1114.55 89.3575 1116.48 91.0878 1117.95 93.3677C1119.41 95.6476 1120.22 98.2832 1120.39 101.275C1120.55 104.266 1120.03 106.974 1118.82 109.399C1117.61 111.824 1115.88 113.768 1113.63 115.23C1111.38 116.663 1108.83 117.457 1105.98 117.611ZM1105.79 114.17C1107.91 114.055 1109.79 113.458 1111.42 112.379C1113.08 111.298 1114.34 109.817 1115.2 107.935C1116.09 106.052 1116.47 103.905 1116.33 101.495C1116.2 99.055 1115.59 96.9618 1114.51 95.2148C1113.45 93.4371 1112.05 92.1004 1110.31 91.2044C1108.58 90.3085 1106.63 89.9189 1104.48 90.0356C1102.33 90.1523 1100.44 90.7501 1098.81 91.8291C1097.18 92.908 1095.92 94.3891 1095.04 96.2724C1094.17 98.1251 1093.81 100.271 1093.94 102.711C1094.07 105.121 1094.67 107.215 1095.73 108.993C1096.81 110.769 1098.23 112.105 1099.96 113.001C1101.73 113.895 1103.67 114.285 1105.79 114.17ZM1155.61 84.3751L1157.24 114.521L1153.28 114.736L1152.06 92.2576L1143.26 115.281L1140.47 115.432L1129.19 93.4563L1130.41 115.979L1126.45 116.194L1124.81 86.048L1129.08 85.8161L1141.58 110.129L1151.38 84.6046L1155.61 84.3751ZM1212.09 81.0886L1204.94 111.93L1200.5 112.172L1192.12 88.1159L1186.12 112.953L1181.73 113.235L1171.58 83.2891L1175.81 83.0596L1183.83 108.446L1189.75 82.3024L1194.19 82.0611L1202.55 107.341L1207.83 81.3205L1212.09 81.0886ZM1220.57 83.8613L1221.12 94.0117L1232.19 93.4107L1232.37 96.6779L1221.3 97.2789L1221.87 107.734L1234.24 107.062L1234.42 110.329L1218.08 111.217L1216.43 80.8094L1232.77 79.9221L1232.94 83.1894L1220.57 83.8613ZM1254.77 93.5385C1255.88 93.6529 1256.91 94.0486 1257.85 94.7258C1258.82 95.4013 1259.59 96.2622 1260.18 97.3084C1260.79 98.353 1261.12 99.4852 1261.19 100.705C1261.27 102.244 1260.96 103.66 1260.24 104.951C1259.52 106.213 1258.43 107.249 1256.96 108.057C1255.51 108.834 1253.78 109.278 1251.74 109.388L1240.42 110.004L1238.77 79.6398L1249.66 79.0483C1251.72 78.9363 1253.5 79.1894 1254.99 79.8075C1256.48 80.3966 1257.61 81.2523 1258.4 82.3746C1259.19 83.4968 1259.63 84.784 1259.71 86.2361C1259.8 88.0368 1259.39 89.5593 1258.47 90.8036C1257.57 92.0174 1256.34 92.929 1254.77 93.5385ZM1243.44 92.5372L1250.11 92.1751C1251.97 92.0742 1253.38 91.5605 1254.35 90.634C1255.32 89.7075 1255.76 88.4746 1255.68 86.9354C1255.6 85.3961 1255.02 84.2185 1253.96 83.4024C1252.89 82.5864 1251.4 82.2304 1249.49 82.3345L1242.91 82.6918L1243.44 92.5372ZM1251.22 106.14C1253.19 106.033 1254.71 105.485 1255.76 104.495C1256.81 103.506 1257.29 102.184 1257.2 100.528C1257.11 98.8437 1256.46 97.5539 1255.25 96.6586C1254.03 95.7342 1252.45 95.3249 1250.5 95.4306L1243.62 95.8044L1244.2 106.521L1251.22 106.14Z" fill="#BEBEBE"/>
<path d="M1338.28 101.455L1348.91 100.878L1349.09 104.102L1334.49 104.894L1332.84 74.5304L1336.81 74.3151L1338.28 101.455ZM1370.88 96.1457L1357.63 96.865L1355.56 103.75L1351.38 103.977L1360.72 73.1911L1365.29 72.9427L1377.87 102.538L1373.68 102.766L1370.88 96.1457ZM1369.57 92.9835L1363.25 77.9472L1358.59 93.5797L1369.57 92.9835ZM1406.52 100.982L1402.56 101.197L1385.3 77.8854L1386.61 102.063L1382.65 102.278L1381 71.8711L1384.96 71.6558L1402.22 94.924L1400.91 70.7898L1404.87 70.5745L1406.52 100.982ZM1421.08 69.7375C1424.4 69.5577 1427.29 70.0267 1429.77 71.1446C1432.27 72.2319 1434.23 73.888 1435.63 76.113C1437.06 78.3363 1437.86 81.0018 1438.03 84.1093C1438.2 87.2168 1437.69 89.9533 1436.51 92.3186C1435.36 94.6533 1433.59 96.4968 1431.22 97.8491C1428.87 99.1708 1426.04 99.9215 1422.73 100.101L1413.28 100.615L1411.63 70.251L1421.08 69.7375ZM1422.56 96.8341C1426.48 96.6211 1429.41 95.4276 1431.36 93.2536C1433.31 91.0506 1434.18 88.0758 1433.98 84.3294C1433.77 80.5539 1432.57 77.6628 1430.36 75.6563C1428.19 73.6482 1425.15 72.7499 1421.26 72.9612L1415.77 73.2594L1417.07 97.1322L1422.56 96.8341ZM1446.4 68.3627L1448.05 98.7265L1444.08 98.9419L1442.43 68.578L1446.4 68.3627ZM1478.67 97.0629L1474.71 97.2782L1457.45 73.9665L1458.77 98.1443L1454.8 98.3596L1453.15 67.9522L1457.11 67.7369L1474.37 91.0051L1473.06 66.8709L1477.02 66.6555L1478.67 97.0629ZM1507.26 73.8826C1506.32 72.1567 1505.03 70.858 1503.38 69.9864C1501.73 69.0857 1499.84 68.6929 1497.72 68.8081C1495.6 68.9232 1493.71 69.521 1492.05 70.6016C1490.42 71.6514 1489.16 73.118 1488.27 75.0013C1487.41 76.854 1487.05 78.9711 1487.18 81.3526C1487.31 83.7341 1487.9 85.7991 1488.96 87.5477C1490.04 89.2947 1491.45 90.6161 1493.19 91.5121C1494.96 92.3774 1496.9 92.7525 1499.02 92.6373C1501.98 92.4764 1504.37 91.4581 1506.19 89.5825C1508.01 87.7068 1509 85.25 1509.16 82.2123L1497.05 82.8701L1496.87 79.6464L1513.21 78.759L1513.37 81.8085C1513.28 84.3188 1512.62 86.6557 1511.39 88.8193C1510.17 90.9539 1508.5 92.6902 1506.39 94.0283C1504.28 95.3373 1501.88 96.0644 1499.21 96.2096C1496.4 96.3626 1493.79 95.8487 1491.4 94.668C1489 93.4582 1487.06 91.7142 1485.56 89.4359C1484.1 87.1561 1483.29 84.535 1483.13 81.5726C1482.96 78.6103 1483.49 75.9167 1484.7 73.4917C1485.93 71.036 1487.68 69.0917 1489.93 67.6586C1492.18 66.1964 1494.71 65.3889 1497.53 65.2359C1500.75 65.0608 1503.64 65.7048 1506.2 67.1681C1508.78 68.6298 1510.72 70.782 1512.01 73.6247L1507.26 73.8826ZM1550.09 71.644C1550.22 74.1707 1549.47 76.3236 1547.82 78.1027C1546.19 79.8511 1543.61 80.8216 1540.07 81.0141L1534.23 81.3311L1534.92 94.0081L1530.95 94.2234L1529.3 63.8596L1539.11 63.3272C1542.53 63.1411 1545.18 63.8276 1547.04 65.3868C1548.93 66.9444 1549.95 69.0302 1550.09 71.644ZM1539.89 77.7468C1542.1 77.6269 1543.7 77.0594 1544.69 76.0442C1545.68 75.029 1546.13 73.6356 1546.04 71.864C1545.83 68.1176 1543.58 66.3611 1539.28 66.5945L1533.45 66.9116L1534.05 78.0639L1539.89 77.7468ZM1573.76 85.126L1560.52 85.8453L1558.45 92.7302L1554.26 92.9573L1563.6 62.1715L1568.18 61.923L1580.75 91.5187L1576.57 91.7459L1573.76 85.126ZM1572.45 81.9638L1566.13 66.9276L1561.48 82.5601L1572.45 81.9638ZM1607.37 68.4455C1606.43 66.7197 1605.13 65.421 1603.48 64.5493C1601.83 63.6486 1599.95 63.2559 1597.83 63.371C1595.71 63.4862 1593.82 64.084 1592.16 65.1645C1590.52 66.2144 1589.26 67.681 1588.38 69.5643C1587.52 71.417 1587.15 73.5341 1587.28 75.9155C1587.41 78.297 1588 80.362 1589.06 82.1106C1590.14 83.8576 1591.55 85.1791 1593.29 86.075C1595.06 86.9404 1597 87.3155 1599.12 87.2003C1602.08 87.0394 1604.48 86.0211 1606.3 84.1454C1608.12 82.2697 1609.1 79.813 1609.26 76.7752L1597.15 77.433L1596.97 74.2093L1613.31 73.322L1613.48 76.3715C1613.38 78.8817 1612.72 81.2187 1611.5 83.3823C1610.27 85.5168 1608.61 87.2532 1606.49 88.5913C1604.38 89.9003 1601.99 90.6274 1599.32 90.7725C1596.5 90.9255 1593.89 90.4117 1591.5 89.231C1589.1 88.0212 1587.16 86.2772 1585.67 83.9989C1584.2 81.719 1583.39 79.0979 1583.23 76.1356C1583.07 73.1733 1583.59 70.4796 1584.8 68.0546C1586.03 65.599 1587.78 63.6546 1590.03 62.2215C1592.28 60.7594 1594.82 59.9518 1597.63 59.7988C1600.86 59.6237 1603.75 60.2678 1606.3 61.731C1608.89 63.1927 1610.82 65.3449 1612.11 68.1876L1607.37 68.4455ZM1621.93 62.0618L1622.48 72.2121L1633.55 71.6111L1633.73 74.8784L1622.66 75.4794L1623.23 85.9346L1635.6 85.2626L1635.78 88.5299L1619.44 89.4172L1617.79 59.0098L1634.13 58.1225L1634.3 61.3898L1621.93 62.0618Z" fill="#BEBEBE"/>
</g>
<g clip-path="url(#clip1_425_16585)">
<rect width="1767.68" height="89" transform="translate(-22.2344) rotate(4.27172)" fill="#212121"/>
<path d="M32.6444 33.7729L31.2113 52.9593C31.0098 55.6567 31.5129 57.7068 32.7206 59.1095C33.9573 60.5143 35.7504 61.3045 38.0997 61.48C40.4201 61.6533 42.2816 61.1361 43.6843 59.9284C45.116 58.7229 45.9326 56.7714 46.134 54.074L47.5671 34.8876L51.5262 35.1833L50.0964 54.3262C49.9079 56.8496 49.2411 58.9435 48.096 60.6079C46.953 62.2434 45.4799 63.4166 43.6769 64.1278C41.9028 64.8411 39.9426 65.1176 37.7962 64.9573C35.6499 64.797 33.738 64.2312 32.0606 63.2601C30.4122 62.2912 29.1443 60.9132 28.2569 59.1261C27.4008 57.3121 27.0669 55.1435 27.2554 52.6201L28.6853 33.4772L32.6444 33.7729ZM62.0898 35.9723L59.8248 66.2964L55.8657 66.0007L58.1307 35.6766L62.0898 35.9723ZM96.0248 27.7885L80.4903 75.2774L76.5747 74.9849L92.0657 27.4928L96.0248 27.7885ZM116.599 40.0438L115.165 59.2302C114.964 61.9276 115.467 63.9777 116.675 65.3804C117.911 66.7852 119.704 67.5754 122.054 67.7509C124.374 67.9242 126.236 67.407 127.638 66.1993C129.07 64.9937 129.887 63.0423 130.088 60.3448L131.521 41.1584L135.48 41.4542L134.051 60.5971C133.862 63.1204 133.195 65.2144 132.05 66.8788C130.907 68.5142 129.434 69.6875 127.631 70.3987C125.857 71.112 123.897 71.3885 121.75 71.2281C119.604 71.0678 117.692 70.5021 116.015 69.531C114.366 68.562 113.098 67.184 112.211 65.3969C111.355 63.583 111.021 61.4144 111.21 58.891L112.639 39.7481L116.599 40.0438ZM153.35 58.0574L161.53 73.8932L157.048 73.5584L150.667 61.182L142.865 72.4991L138.471 72.1708L148.869 57.7227L140.693 41.8435L145.13 42.175L151.552 54.5982L159.401 43.2408L163.838 43.5723L153.35 58.0574ZM190.146 45.5374C193.453 45.7844 196.263 46.6213 198.577 48.0484C200.923 49.4485 202.648 51.3419 203.753 53.7286C204.887 56.1174 205.338 58.8636 205.106 61.9671C204.875 65.0705 204.021 67.7192 202.544 69.9131C201.099 72.0801 199.113 73.6817 196.585 74.7179C194.089 75.7273 191.188 76.1085 187.881 75.8615L178.44 75.1563L180.705 44.8322L190.146 45.5374ZM188.125 72.5985C192.041 72.891 195.105 72.0844 197.318 70.179C199.533 68.2445 200.781 65.4064 201.06 61.6649C201.342 57.8943 200.518 54.8723 198.588 52.599C196.686 50.3279 193.793 49.0472 189.906 48.7569L184.424 48.3474L182.643 72.189L188.125 72.5985ZM215.185 50.645L214.427 60.7821L225.478 61.6075L225.234 64.8705L214.184 64.0451L213.404 74.4867L225.76 75.4096L225.516 78.6726L209.201 77.4539L211.469 47.0863L227.784 48.305L227.54 51.5679L215.185 50.645ZM241.099 80.1427C239.098 79.9933 237.325 79.5109 235.782 78.6956C234.27 77.8535 233.111 76.7753 232.305 75.461C231.501 74.1176 231.146 72.6182 231.241 70.9628L235.461 71.278C235.5 72.7101 235.99 73.9571 236.932 75.0191C237.904 76.0542 239.377 76.6454 241.349 76.7927C243.234 76.9336 244.748 76.58 245.891 75.732C247.064 74.8572 247.706 73.6802 247.817 72.2009C247.904 71.0408 247.655 70.0743 247.071 69.3015C246.487 68.5287 245.731 67.9181 244.802 67.4695C243.873 67.021 242.612 66.5185 241.021 65.9621C239.058 65.2906 237.487 64.6482 236.308 64.0352C235.158 63.4243 234.189 62.5352 233.401 61.3681C232.645 60.1741 232.337 58.6344 232.478 56.7491C232.601 55.0959 233.131 53.6626 234.067 52.4492C235.004 51.2358 236.252 50.3374 237.813 49.754C239.402 49.1727 241.182 48.9557 243.155 49.103C245.997 49.3154 248.264 50.1993 249.957 51.7548C251.678 53.3125 252.567 55.2747 252.623 57.6414L248.272 57.3164C248.214 56.1454 247.681 55.0848 246.673 54.1345C245.667 53.1552 244.279 52.5995 242.51 52.4673C240.857 52.3438 239.475 52.6782 238.366 53.4703C237.259 54.2334 236.648 55.3836 236.533 56.9208C236.451 58.023 236.689 58.9449 237.246 59.6865C237.832 60.4303 238.56 61.0243 239.431 61.4685C240.333 61.8859 241.594 62.3883 243.212 62.9759C245.172 63.6764 246.741 64.3478 247.918 64.9898C249.097 65.6029 250.08 66.5075 250.865 67.7037C251.653 68.8709 251.976 70.4116 251.833 72.3259C251.722 73.8051 251.226 75.1681 250.346 76.4148C249.465 77.6615 248.226 78.6335 246.628 79.3308C245.03 80.0281 243.187 80.2987 241.099 80.1427ZM263.265 50.9989L261 81.323L257.041 81.0273L259.306 50.7032L263.265 50.9989ZM292.328 62.0071C291.619 60.175 290.503 58.7208 288.979 57.6445C287.457 56.5392 285.638 55.9075 283.521 55.7493C281.403 55.5912 279.452 55.9413 277.667 56.7996C275.913 57.6311 274.475 58.9236 273.353 60.6772C272.261 62.404 271.627 64.4566 271.449 66.835C271.271 69.2133 271.594 71.3374 272.417 73.2071C273.269 75.0791 274.499 76.5709 276.107 77.6828C277.747 78.7677 279.626 79.3893 281.743 79.5474C284.701 79.7684 287.204 79.0658 289.25 77.4395C291.297 75.8132 292.592 73.5037 293.137 70.5111L281.042 69.6077L281.282 66.3882L297.597 67.6068L297.37 70.6523C296.951 73.1293 295.997 75.3622 294.507 77.3509C293.019 79.3105 291.142 80.8182 288.875 81.8739C286.611 82.9006 284.145 83.3143 281.477 83.115C278.663 82.9048 276.145 82.0605 273.922 80.582C271.701 79.0745 269.997 77.0951 268.809 74.6439C267.651 72.1949 267.182 69.4912 267.403 66.5327C267.624 63.5743 268.489 60.9702 269.999 58.7205C271.54 56.444 273.519 54.7398 275.937 53.6079C278.357 52.447 280.974 51.9716 283.787 52.1818C287.007 52.4223 289.789 53.4322 292.136 55.2116C294.511 56.9931 296.156 59.3764 297.07 62.3613L292.328 62.0071ZM325.452 86.1371L321.493 85.8414L307.373 60.5059L305.569 84.652L301.61 84.3563L303.878 53.9887L307.837 54.2844L321.96 79.5765L323.761 55.4738L327.72 55.7695L325.452 86.1371Z" fill="#BEBEBE"/>
<path d="M418.875 62.622L418.634 65.8415L405.452 64.8568L404.688 75.0809L415.391 75.8803L415.15 79.0998L404.448 78.3004L403.427 91.9614L399.468 91.6657L401.733 61.3416L418.875 62.622ZM437.358 94.4959L431.062 81.5571L426.277 81.1996L425.351 93.599L421.391 93.3033L423.656 62.9792L433.445 63.7103C435.737 63.8815 437.636 64.4171 439.144 65.3172C440.681 66.2195 441.791 67.367 442.474 68.7597C443.158 70.1524 443.436 71.7043 443.308 73.4156C443.152 75.5039 442.405 77.3002 441.068 78.8045C439.76 80.3109 437.882 81.2352 435.436 81.5775L442.101 94.8501L437.358 94.4959ZM426.514 78.0236L432.344 78.4591C434.49 78.6194 436.139 78.2175 437.29 77.2535C438.443 76.2605 439.086 74.8794 439.218 73.1101C439.353 71.3119 438.92 69.8796 437.92 68.8133C436.95 67.7491 435.377 67.1358 433.202 66.9733L427.372 66.5379L426.514 78.0236ZM461.586 96.6118C458.773 96.4017 456.255 95.5573 454.032 94.0788C451.811 92.5713 450.107 90.5919 448.919 88.1408C447.763 85.6627 447.295 82.9445 447.516 79.9861C447.737 77.0276 448.602 74.4235 450.112 72.1738C451.653 69.8973 453.632 68.1931 456.05 67.0612C458.47 65.9003 461.086 65.425 463.9 65.6351C466.742 65.8474 469.274 66.7073 471.495 68.2148C473.717 69.6934 475.408 71.6571 476.567 74.1061C477.726 76.5552 478.193 79.2734 477.97 82.2608C477.747 85.2483 476.881 87.8669 475.371 90.1166C473.861 92.3663 471.897 94.0716 469.477 95.2324C467.059 96.3643 464.429 96.8241 461.586 96.6118ZM461.843 93.1748C463.96 93.3329 465.897 92.9818 467.653 92.1213C469.438 91.2629 470.877 89.9559 471.971 88.2001C473.093 86.4465 473.744 84.366 473.924 81.9586C474.106 79.5222 473.771 77.3681 472.919 75.4962C472.099 73.5974 470.884 72.0921 469.276 70.9803C467.667 69.8685 465.79 69.2324 463.643 69.0721C461.497 68.9118 459.546 69.2619 457.79 70.1224C456.034 70.9829 454.595 72.2899 453.472 74.0436C452.381 75.7703 451.744 77.8519 451.562 80.2883C451.382 82.6956 451.702 84.8487 452.523 86.7475C453.373 88.6484 454.602 90.1548 456.21 91.2666C457.848 92.3806 459.726 93.0166 461.843 93.1748ZM505.904 99.6159L501.945 99.3201L487.825 73.9846L486.022 98.1308L482.063 97.835L484.331 67.4674L488.29 67.7631L502.413 93.0552L504.214 68.9525L508.173 69.2483L505.904 99.6159ZM533.583 71.19L533.342 74.4095L525.076 73.792L523.051 100.897L519.092 100.601L521.117 73.4963L512.807 72.8756L513.048 69.6561L533.583 71.19ZM554.04 85.4928L553.789 88.8428L536.43 87.5462L536.681 84.1962L554.04 85.4928ZM566.137 76.8591L565.38 86.9961L576.431 87.8215L576.187 91.0845L565.136 90.2591L564.357 100.701L576.712 101.624L576.469 104.887L560.154 103.668L562.422 73.3004L578.737 74.519L578.493 77.782L566.137 76.8591ZM606.301 107.115L602.342 106.819L588.222 81.4836L586.418 105.63L582.459 105.334L584.728 74.9664L588.687 75.2622L602.81 100.554L604.61 76.4516L608.569 76.7473L606.301 107.115ZM624.756 78.0001C628.062 78.247 630.873 79.084 633.187 80.511C635.532 81.9112 637.258 83.8046 638.363 86.1913C639.497 88.5801 639.948 91.3263 639.716 94.4298C639.484 97.5332 638.63 100.182 637.154 102.376C635.708 104.543 633.722 106.144 631.195 107.181C628.699 108.19 625.797 108.571 622.491 108.324L613.05 107.619L615.315 77.2949L624.756 78.0001ZM622.735 105.061C626.65 105.354 629.715 104.547 631.928 102.642C634.143 100.707 635.39 97.8691 635.67 94.1275C635.951 90.357 635.127 87.335 633.197 85.0617C631.296 82.7906 628.402 81.5099 624.515 81.2196L619.034 80.8101L617.253 104.652L622.735 105.061Z" fill="#BEBEBE"/>
<path d="M727.95 100.495C729.039 100.752 730.006 101.276 730.851 102.068C731.725 102.863 732.383 103.816 732.825 104.928C733.295 106.043 733.485 107.209 733.394 108.427C733.28 109.964 732.784 111.327 731.908 112.516C731.034 113.676 729.815 114.562 728.253 115.174C726.722 115.76 724.941 115.977 722.911 115.825L711.599 114.98L713.864 84.6561L724.741 85.4685C726.8 85.6223 728.529 86.1014 729.927 86.9059C731.327 87.6813 732.347 88.6762 732.985 89.8905C733.624 91.1048 733.889 92.4371 733.781 93.8873C733.646 95.6856 733.042 97.1425 731.967 98.258C730.923 99.3467 729.584 100.093 727.95 100.495ZM716.845 98.0473L723.502 98.5445C725.358 98.6831 726.826 98.3553 727.906 97.561C728.986 96.7667 729.584 95.6009 729.699 94.0637C729.813 92.5265 729.396 91.2849 728.446 90.3389C727.495 89.3929 726.063 88.8485 724.149 88.7055L717.579 88.2148L716.845 98.0473ZM722.806 112.536C724.779 112.683 726.351 112.334 727.522 111.488C728.694 110.643 729.341 109.393 729.465 107.74C729.59 106.057 729.109 104.694 728.02 103.651C726.934 102.578 725.419 101.969 723.475 101.824L716.601 101.31L715.802 112.013L722.806 112.536ZM756.709 111.568L743.483 110.581L740.543 117.142L736.367 116.83L749.582 87.499L754.15 87.8402L762.819 118.806L758.642 118.494L756.709 111.568ZM755.819 108.265L751.481 92.5407L744.855 107.446L755.819 108.265ZM767.252 103.869C767.473 100.91 768.338 98.3061 769.848 96.0564C771.36 93.7776 773.311 92.0568 775.702 90.8937C778.122 89.7328 780.739 89.2575 783.552 89.4676C786.859 89.7146 789.685 90.7278 792.031 92.5072C794.377 94.2865 796.007 96.6832 796.919 99.6971L792.177 99.3429C791.472 97.4528 790.359 95.9551 788.838 94.8498C787.345 93.7467 785.497 93.1128 783.292 92.9481C781.175 92.79 779.238 93.1412 777.482 94.0017C775.726 94.8621 774.302 96.1703 773.208 97.9261C772.117 99.6528 771.48 101.734 771.298 104.171C771.118 106.578 771.438 108.731 772.259 110.63C773.082 112.5 774.298 113.991 775.906 115.102C777.515 116.214 779.378 116.849 781.495 117.007C783.699 117.172 785.62 116.834 787.258 115.994C788.927 115.127 790.25 113.811 791.228 112.047L795.97 112.401C794.622 115.217 792.656 117.331 790.072 118.742C787.489 120.124 784.545 120.691 781.238 120.444C778.425 120.234 775.907 119.39 773.684 117.911C771.492 116.406 769.817 114.429 768.658 111.98C767.5 109.531 767.031 106.827 767.252 103.869ZM817.649 122.901L806.196 108.134L805.163 121.969L801.204 121.673L803.469 91.349L807.428 91.6447L806.378 105.697L819.958 92.5806L824.961 92.9544L810.079 107.111L822.827 123.288L817.649 122.901ZM833.232 96.8096L832.475 106.947L843.526 107.772L843.282 111.035L832.231 110.21L831.451 120.651L843.807 121.574L843.563 124.837L827.248 123.618L829.517 93.2509L845.832 94.4695L845.588 97.7325L833.232 96.8096ZM873.396 127.065L869.437 126.77L855.317 101.434L853.513 125.58L849.554 125.285L851.822 94.917L855.781 95.2127L869.905 120.505L871.705 96.4021L875.664 96.6978L873.396 127.065ZM891.851 97.9506C895.157 98.1976 897.967 99.0346 900.282 100.462C902.627 101.862 904.352 103.755 905.457 106.142C906.591 108.531 907.042 111.277 906.811 114.38C906.579 117.484 905.725 120.132 904.248 122.326C902.803 124.493 900.817 126.095 898.29 127.131C895.793 128.14 892.892 128.522 889.586 128.275L880.145 127.57L882.41 97.2454L891.851 97.9506ZM889.829 125.012C893.745 125.304 896.809 124.498 899.022 122.592C901.238 120.658 902.485 117.82 902.765 114.078C903.046 110.307 902.222 107.286 900.292 105.012C898.391 102.741 895.497 101.46 891.61 101.17L886.128 100.761L884.347 124.602L889.829 125.012Z" fill="#BEBEBE"/>
<path d="M977.512 119.574C977.733 116.615 978.598 114.011 980.108 111.761C981.62 109.483 983.571 107.762 985.962 106.599C988.382 105.438 990.999 104.962 993.812 105.173C997.119 105.42 999.945 106.433 1002.29 108.212C1004.64 109.992 1006.27 112.388 1007.18 115.402L1002.44 115.048C1001.73 113.158 1000.62 111.66 999.098 110.555C997.605 109.452 995.757 108.818 993.552 108.653C991.435 108.495 989.498 108.846 987.742 109.707C985.986 110.567 984.562 111.875 983.468 113.631C982.377 115.358 981.74 117.439 981.558 119.876C981.378 122.283 981.699 124.436 982.519 126.335C983.342 128.205 984.558 129.696 986.166 130.807C987.775 131.919 989.638 132.554 991.755 132.712C993.96 132.877 995.881 132.539 997.518 131.699C999.187 130.832 1000.51 129.516 1001.49 127.752L1006.23 128.106C1004.88 130.922 1002.92 133.036 1000.33 134.447C997.749 135.829 994.805 136.396 991.498 136.149C988.685 135.939 986.167 135.095 983.944 133.616C981.752 132.111 980.077 130.134 978.918 127.685C977.76 125.236 977.291 122.532 977.512 119.574ZM1017.6 107.343L1016.17 126.53C1015.97 129.227 1016.47 131.277 1017.68 132.68C1018.91 134.085 1020.71 134.875 1023.06 135.05C1025.38 135.224 1027.24 134.706 1028.64 133.499C1030.07 132.293 1030.89 130.342 1031.09 127.644L1032.52 108.458L1036.48 108.754L1035.05 127.897C1034.86 130.42 1034.2 132.514 1033.05 134.178C1031.91 135.814 1030.44 136.987 1028.63 137.698C1026.86 138.411 1024.9 138.688 1022.75 138.528C1020.61 138.367 1018.69 137.802 1017.02 136.83C1015.37 135.861 1014.1 134.483 1013.21 132.696C1012.36 130.882 1012.02 128.714 1012.21 126.19L1013.64 107.048L1017.6 107.343ZM1050.41 140.594C1048.41 140.444 1046.64 139.962 1045.1 139.147C1043.59 138.305 1042.43 137.226 1041.62 135.912C1040.82 134.569 1040.46 133.069 1040.56 131.414L1044.78 131.729C1044.82 133.161 1045.31 134.408 1046.25 135.47C1047.22 136.505 1048.69 137.096 1050.66 137.244C1052.55 137.385 1054.06 137.031 1055.21 136.183C1056.38 135.308 1057.02 134.131 1057.13 132.652C1057.22 131.492 1056.97 130.525 1056.39 129.753C1055.8 128.98 1055.05 128.369 1054.12 127.921C1053.19 127.472 1051.93 126.969 1050.34 126.413C1048.37 125.742 1046.8 125.099 1045.62 124.486C1044.47 123.875 1043.5 122.986 1042.72 121.819C1041.96 120.625 1041.65 119.085 1041.79 117.2C1041.92 115.547 1042.45 114.114 1043.38 112.9C1044.32 111.687 1045.57 110.788 1047.13 110.205C1048.72 109.624 1050.5 109.407 1052.47 109.554C1055.31 109.766 1057.58 110.65 1059.27 112.206C1060.99 113.764 1061.88 115.726 1061.94 118.092L1057.59 117.767C1057.53 116.596 1057 115.536 1055.99 114.585C1054.98 113.606 1053.59 113.05 1051.83 112.918C1050.17 112.795 1048.79 113.129 1047.68 113.921C1046.58 114.684 1045.96 115.835 1045.85 117.372C1045.77 118.474 1046 119.396 1046.56 120.137C1047.15 120.881 1047.88 121.475 1048.75 121.919C1049.65 122.337 1050.91 122.839 1052.53 123.427C1054.49 124.127 1056.06 124.799 1057.23 125.441C1058.41 126.054 1059.4 126.959 1060.18 128.155C1060.97 129.322 1061.29 130.863 1061.15 132.777C1061.04 134.256 1060.54 135.619 1059.66 136.866C1058.78 138.112 1057.54 139.084 1055.94 139.782C1054.35 140.479 1052.5 140.75 1050.41 140.594ZM1087.29 112.548L1087.05 115.768L1078.78 115.15L1076.76 142.255L1072.8 141.959L1074.82 114.855L1066.51 114.234L1066.75 111.014L1087.29 112.548ZM1103.62 144.568C1100.81 144.358 1098.29 143.513 1096.07 142.035C1093.85 140.527 1092.14 138.548 1090.95 136.097C1089.8 133.619 1089.33 130.901 1089.55 127.942C1089.77 124.984 1090.64 122.38 1092.15 120.13C1093.69 117.853 1095.67 116.149 1098.08 115.017C1100.5 113.856 1103.12 113.381 1105.93 113.591C1108.78 113.803 1111.31 114.663 1113.53 116.171C1115.75 117.649 1117.44 119.613 1118.6 122.062C1119.76 124.511 1120.23 127.229 1120 130.217C1119.78 133.204 1118.91 135.823 1117.41 138.073C1115.9 140.322 1113.93 142.028 1111.51 143.189C1109.09 144.32 1106.46 144.78 1103.62 144.568ZM1103.88 141.131C1105.99 141.289 1107.93 140.938 1109.69 140.077C1111.47 139.219 1112.91 137.912 1114 136.156C1115.13 134.403 1115.78 132.322 1115.96 129.915C1116.14 127.478 1115.81 125.324 1114.95 123.452C1114.13 121.553 1112.92 120.048 1111.31 118.936C1109.7 117.825 1107.82 117.189 1105.68 117.028C1103.53 116.868 1101.58 117.218 1099.82 118.078C1098.07 118.939 1096.63 120.246 1095.51 122C1094.41 123.726 1093.78 125.808 1093.6 128.244C1093.42 130.652 1093.74 132.805 1094.56 134.704C1095.41 136.604 1096.64 138.111 1098.24 139.223C1099.88 140.337 1101.76 140.973 1103.88 141.131ZM1157.1 117.982L1154.86 148.089L1150.9 147.793L1152.57 125.344L1140.89 147.045L1138.11 146.838L1129.74 123.594L1128.06 146.087L1124.1 145.791L1126.35 115.685L1130.61 116.003L1139.89 141.721L1152.88 117.667L1157.1 117.982ZM1213.55 121.979L1202.49 151.647L1198.05 151.315L1192.83 126.382L1183.7 150.243L1179.3 149.958L1173.08 118.957L1177.3 119.272L1182 145.479L1191.23 120.312L1195.66 120.644L1200.71 146.789L1209.28 121.661L1213.55 121.979ZM1221.6 125.818L1220.84 135.955L1231.89 136.78L1231.65 140.043L1220.6 139.218L1219.82 149.66L1232.17 150.582L1231.93 153.845L1215.61 152.627L1217.88 122.259L1234.2 123.478L1233.95 126.741L1221.6 125.818ZM1254.27 139.808C1255.36 140.065 1256.33 140.589 1257.17 141.381C1258.04 142.176 1258.7 143.129 1259.14 144.241C1259.62 145.355 1259.81 146.522 1259.71 147.74C1259.6 149.277 1259.1 150.64 1258.23 151.829C1257.35 152.988 1256.14 153.874 1254.57 154.487C1253.04 155.073 1251.26 155.29 1249.23 155.138L1237.92 154.293L1240.18 123.969L1251.06 124.781C1253.12 124.935 1254.85 125.414 1256.25 126.219C1257.65 126.994 1258.67 127.989 1259.31 129.203C1259.94 130.418 1260.21 131.75 1260.1 133.2C1259.97 134.998 1259.36 136.455 1258.29 137.571C1257.24 138.659 1255.9 139.405 1254.27 139.808ZM1243.17 137.36L1249.82 137.857C1251.68 137.996 1253.15 137.668 1254.23 136.874C1255.31 136.079 1255.9 134.914 1256.02 133.376C1256.13 131.839 1255.72 130.598 1254.77 129.652C1253.82 128.706 1252.38 128.161 1250.47 128.018L1243.9 127.528L1243.17 137.36ZM1249.13 151.849C1251.1 151.996 1252.67 151.647 1253.84 150.801C1255.01 149.955 1255.66 148.706 1255.78 147.053C1255.91 145.37 1255.43 144.007 1254.34 142.963C1253.25 141.891 1251.74 141.282 1249.8 141.137L1242.92 140.623L1242.12 151.326L1249.13 151.849Z" fill="#BEBEBE"/>
<path d="M1336.07 158.387L1346.69 159.18L1346.45 162.399L1331.87 161.311L1334.14 130.987L1338.1 131.282L1336.07 158.387ZM1369.08 157.309L1355.85 156.321L1352.91 162.882L1348.74 162.57L1361.95 133.239L1366.52 133.581L1375.19 164.546L1371.01 164.234L1369.08 157.309ZM1368.19 154.005L1363.85 138.281L1357.22 153.186L1368.19 154.005ZM1403.81 166.684L1399.85 166.388L1385.73 141.053L1383.93 165.199L1379.97 164.903L1382.23 134.536L1386.19 134.831L1400.32 160.123L1402.12 136.021L1406.08 136.316L1403.81 166.684ZM1422.26 137.569C1425.57 137.816 1428.38 138.653 1430.69 140.08C1433.04 141.48 1434.76 143.374 1435.87 145.76C1437 148.149 1437.46 150.895 1437.22 153.999C1436.99 157.102 1436.14 159.751 1434.66 161.945C1433.22 164.112 1431.23 165.713 1428.7 166.75C1426.21 167.759 1423.3 168.14 1420 167.893L1410.56 167.188L1412.82 136.864L1422.26 137.569ZM1420.24 164.63C1424.16 164.923 1427.22 164.116 1429.44 162.211C1431.65 160.276 1432.9 157.438 1433.18 153.697C1433.46 149.926 1432.63 146.904 1430.7 144.631C1428.8 142.36 1425.91 141.079 1422.02 140.789L1416.54 140.379L1414.76 164.221L1420.24 164.63ZM1447.54 139.457L1445.28 169.781L1441.32 169.486L1443.58 139.162L1447.54 139.457ZM1475.87 172.066L1471.91 171.771L1457.79 146.435L1455.98 170.581L1452.02 170.285L1454.29 139.918L1458.25 140.214L1472.37 165.506L1474.18 141.403L1478.13 141.699L1475.87 172.066ZM1507.2 152.75C1506.49 150.918 1505.37 149.464 1503.85 148.388C1502.32 147.283 1500.51 146.651 1498.39 146.493C1496.27 146.335 1494.32 146.685 1492.53 147.543C1490.78 148.374 1489.34 149.667 1488.22 151.421C1487.13 153.147 1486.49 155.2 1486.32 157.578C1486.14 159.957 1486.46 162.081 1487.28 163.95C1488.14 165.822 1489.37 167.314 1490.97 168.426C1492.61 169.511 1494.49 170.133 1496.61 170.291C1499.57 170.512 1502.07 169.809 1504.12 168.183C1506.16 166.557 1507.46 164.247 1508 161.254L1495.91 160.351L1496.15 157.132L1512.46 158.35L1512.24 161.396C1511.82 163.873 1510.86 166.106 1509.37 168.094C1507.89 170.054 1506.01 171.562 1503.74 172.617C1501.48 173.644 1499.01 174.058 1496.34 173.858C1493.53 173.648 1491.01 172.804 1488.79 171.325C1486.57 169.818 1484.86 167.838 1483.68 165.387C1482.52 162.938 1482.05 160.235 1482.27 157.276C1482.49 154.318 1483.36 151.714 1484.87 149.464C1486.41 147.187 1488.39 145.483 1490.8 144.351C1493.22 143.19 1495.84 142.715 1498.65 142.925C1501.87 143.166 1504.66 144.176 1507 145.955C1509.38 147.736 1511.02 150.12 1511.94 153.105L1507.2 152.75ZM1549.95 156.032C1549.76 158.555 1548.74 160.593 1546.87 162.145C1545.04 163.671 1542.35 164.301 1538.81 164.037L1532.98 163.601L1532.04 176.262L1528.08 175.966L1530.34 145.642L1540.13 146.373C1543.55 146.629 1546.09 147.649 1547.73 149.435C1549.41 151.222 1550.15 153.421 1549.95 156.032ZM1539.05 160.774C1541.26 160.938 1542.92 160.581 1544.03 159.702C1545.15 158.823 1545.77 157.499 1545.91 155.729C1546.19 151.988 1544.18 149.957 1539.89 149.636L1534.06 149.201L1533.22 160.338L1539.05 160.774ZM1571.7 172.443L1558.47 171.455L1555.53 178.017L1551.36 177.705L1564.57 148.374L1569.14 148.715L1577.81 179.681L1573.63 179.369L1571.7 172.443ZM1570.81 169.139L1566.47 153.416L1559.84 168.32L1570.81 169.139ZM1607.17 160.218C1606.46 158.386 1605.34 156.931 1603.82 155.855C1602.3 154.75 1600.48 154.118 1598.36 153.96C1596.24 153.802 1594.29 154.152 1592.51 155.01C1590.75 155.842 1589.31 157.134 1588.19 158.888C1587.1 160.615 1586.47 162.667 1586.29 165.046C1586.11 167.424 1586.43 169.548 1587.26 171.418C1588.11 173.29 1589.34 174.782 1590.95 175.893C1592.59 176.978 1594.46 177.6 1596.58 177.758C1599.54 177.979 1602.04 177.276 1604.09 175.65C1606.14 174.024 1607.43 171.714 1607.98 168.722L1595.88 167.818L1596.12 164.599L1612.44 165.817L1612.21 168.863C1611.79 171.34 1610.84 173.573 1609.35 175.561C1607.86 177.521 1605.98 179.029 1603.71 180.085C1601.45 181.111 1598.98 181.525 1596.32 181.326C1593.5 181.115 1590.98 180.271 1588.76 178.793C1586.54 177.285 1584.84 175.306 1583.65 172.855C1582.49 170.406 1582.02 167.702 1582.24 164.743C1582.46 161.785 1583.33 159.181 1584.84 156.931C1586.38 154.655 1588.36 152.95 1590.78 151.819C1593.2 150.658 1595.81 150.182 1598.63 150.392C1601.85 150.633 1604.63 151.643 1606.97 153.422C1609.35 155.204 1610.99 157.587 1611.91 160.572L1607.17 160.218ZM1622.43 155.758L1621.68 165.895L1632.73 166.721L1632.48 169.984L1621.43 169.158L1620.65 179.6L1633.01 180.523L1632.76 183.786L1616.45 182.567L1618.72 152.199L1635.03 153.418L1634.79 156.681L1622.43 155.758Z" fill="#BEBEBE"/>
</g>
<defs>
<clipPath id="clip0_425_16585">
<rect width="1767.68" height="89" fill="white" transform="translate(-29.1172 118.87) rotate(-3.10895)"/>
</clipPath>
<clipPath id="clip1_425_16585">
<rect width="1767.68" height="89" fill="white" transform="translate(-22.2344) rotate(4.27172)"/>
</clipPath>
</defs>
</svg>
