<svg width="1699" height="86" viewBox="0 0 1699 86" fill="none" xmlns="http://www.w3.org/2000/svg">
<g clip-path="url(#clip0_356_16676)">
<path d="M305.635 32.6763H310.977V52.4715H305.635V44.2235H298.513V52.4715H293.171V32.6763H298.513V39.2747H305.635V32.6763ZM355.493 32.6763H339.467C337.509 32.6763 335.906 34.1609 335.906 35.9755V52.4715H341.248V37.6251H344.809V49.1723H350.151V37.5921H353.712V52.4715H359.054V35.9755C359.054 34.1609 357.452 32.6763 355.493 32.6763ZM332.345 32.6763H314.538V37.6251H320.771V52.4715H326.113V37.6251H332.345V32.6763ZM378.641 52.4715V47.5227H369.738V32.6763H364.396V52.4715H378.641Z" fill="#404137"/>
</g>
<path d="M512.894 53.2174C511.889 53.2174 511.045 52.8768 510.364 52.1956C509.683 51.5144 509.344 50.6724 509.346 49.6696V46.1217H514.668V47.8956H521.763V44.3478H512.894C511.889 44.3478 511.045 44.0072 510.364 43.326C509.683 42.6449 509.344 41.8028 509.346 40.8V35.4783C509.346 34.473 509.687 33.6298 510.368 32.9487C511.049 32.2675 511.891 31.9281 512.894 31.9304H523.537C524.543 31.9304 525.386 32.271 526.067 32.9522C526.748 33.6334 527.088 34.4754 527.085 35.4783V39.0261H521.763V37.2522H514.668V40.8H523.537C524.543 40.8 525.386 41.1406 526.067 41.8218C526.748 42.503 527.088 43.345 527.085 44.3478V49.6696C527.085 50.6748 526.745 51.518 526.063 52.1992C525.382 52.8803 524.54 53.2197 523.537 53.2174H512.894ZM535.955 53.2174C534.95 53.2174 534.106 52.8768 533.425 52.1956C532.744 51.5144 532.405 50.6724 532.407 49.6696V46.1217H537.729V47.8956H544.824V44.3478H535.955C534.95 44.3478 534.106 44.0072 533.425 43.326C532.744 42.6449 532.405 41.8028 532.407 40.8V35.4783C532.407 34.473 532.747 33.6298 533.429 32.9487C534.11 32.2675 534.952 31.9281 535.955 31.9304H546.598C547.603 31.9304 548.447 32.271 549.128 32.9522C549.809 33.6334 550.148 34.4754 550.146 35.4783V39.0261H544.824V37.2522H537.729V40.8H546.598C547.603 40.8 548.447 41.1406 549.128 41.8218C549.809 42.503 550.148 43.345 550.146 44.3478V49.6696C550.146 50.6748 549.805 51.518 549.124 52.1992C548.443 52.8803 547.601 53.2197 546.598 53.2174H535.955ZM489.833 53.2174C488.828 53.2174 487.985 52.8768 487.303 52.1956C486.622 51.5144 486.283 50.6724 486.285 49.6696V35.4783C486.285 34.473 486.626 33.6298 487.307 32.9487C487.988 32.2675 488.83 31.9281 489.833 31.9304H500.476C501.482 31.9304 502.325 32.271 503.006 32.9522C503.687 33.6334 504.027 34.4754 504.024 35.4783V39.0261H498.703V37.2522H491.607V47.8956H498.703V46.1217H504.024V49.6696C504.024 50.6748 503.684 51.518 503.003 52.1992C502.321 52.8803 501.479 53.2197 500.476 53.2174H489.833Z" fill="#404137"/>
<g clip-path="url(#clip1_356_16676)">
<path d="M667.627 29.2979C666.338 27.7722 665.228 26.2228 665.001 25.9009C664.996 25.8952 664.99 25.8908 664.982 25.8877C664.975 25.8846 664.967 25.8831 664.96 25.8831C664.952 25.8831 664.944 25.8846 664.937 25.8877C664.93 25.8908 664.923 25.8952 664.918 25.9009C664.691 26.2228 663.581 27.7722 662.292 29.2979C651.228 43.3742 664.035 52.8734 664.035 52.8734L664.142 52.9451C664.237 54.4109 664.476 56.5207 664.476 56.5207H665.431C665.431 56.5207 665.67 54.4228 665.765 52.9451L665.873 52.8615C665.885 52.8734 678.691 43.3742 667.627 29.2979ZM664.954 52.659C664.954 52.659 664.381 52.1701 664.226 51.9201V51.8962L664.918 36.5685C664.918 36.5207 664.99 36.5207 664.99 36.5685L665.682 51.8962V51.9201C665.526 52.1701 664.954 52.659 664.954 52.659Z" fill="#303030"/>
<path d="M688.92 49.5314L683.583 36.529L683.572 36.4932H679.42V37.367H680.089C680.293 37.367 680.484 37.4511 680.628 37.5945C680.771 37.7382 680.843 37.9298 680.843 38.1336L680.724 51.2192C680.724 51.6265 680.389 51.9616 679.982 51.9737L679.3 51.9855V52.8475H683.344V51.9855L682.925 51.9737C682.519 51.9616 682.183 51.6265 682.183 51.2195V38.8873L687.999 52.8473C688.082 53.0508 688.274 53.1826 688.49 53.1826C688.705 53.1826 688.896 53.0508 688.98 52.8473L694.664 39.1986L694.748 51.2192C694.748 51.6381 694.412 51.9734 693.993 51.9853H693.563V52.8473H698.301V51.9853H697.655C697.248 51.9853 696.913 51.6381 696.901 51.2311L696.865 38.1449C696.865 37.9462 696.942 37.7551 697.081 37.6122C697.219 37.4692 697.408 37.3856 697.607 37.3789L698.301 37.3668V36.4929H694.257L688.92 49.5311L688.92 49.5314ZM726.13 51.7578C725.998 51.626 725.926 51.4462 725.926 51.2301V44.802C725.926 43.5788 725.567 42.6191 724.847 41.9356C724.139 41.2519 723.155 40.9043 721.932 40.9043C720.216 40.9043 718.86 41.5998 717.913 42.967C717.901 42.991 717.865 43.0031 717.829 43.0031C717.793 43.0031 717.769 42.9789 717.769 42.943L717.325 41.2279H716.581L714.674 42.3194V42.919H715.165C715.393 42.919 715.585 42.9789 715.717 43.0991C715.849 43.219 715.921 43.3987 715.921 43.6505V51.2183C715.921 51.4341 715.849 51.6141 715.717 51.7462C715.585 51.878 715.405 51.9499 715.189 51.9499H714.709V52.8253H719.1V51.9499H718.621C718.404 51.9499 718.224 51.878 718.093 51.7462C717.961 51.6141 717.889 51.4341 717.889 51.2183V46.205C717.889 45.5696 718.033 44.9338 718.297 44.3099C718.572 43.6984 718.98 43.1826 719.52 42.7868C720.06 42.3911 720.708 42.1992 721.452 42.1992C722.291 42.1992 722.927 42.4631 723.323 42.9907C723.719 43.5184 723.923 44.2021 723.923 45.0176V51.2061C723.923 51.422 723.851 51.6018 723.719 51.7338C723.587 51.8659 723.407 51.9376 723.191 51.9376H722.711V52.8132H727.102V51.9378H726.622C726.442 51.9618 726.274 51.8898 726.13 51.7578ZM766.246 37.4721C765.032 36.8275 763.676 36.4929 762.212 36.4929H756.501V37.3646H757.06C757.274 37.3646 757.464 37.4481 757.655 37.639C757.833 37.8183 757.928 38.0213 757.928 38.2362V51.082C757.928 51.2971 757.833 51.4999 757.655 51.6792C757.476 51.8582 757.274 51.9536 757.06 51.9536H756.501V52.8253H762.212C763.676 52.8253 765.032 52.491 766.246 51.8461C767.459 51.2014 768.447 50.2462 769.161 49.0287C769.875 47.8111 770.244 46.3425 770.244 44.671C770.244 42.9997 769.875 41.543 769.161 40.3135C768.435 39.072 767.459 38.1286 766.246 37.4721ZM767.947 44.6472C767.947 46.1754 767.674 47.4647 767.138 48.5034C766.603 49.542 765.889 50.3179 765.008 50.8196C764.128 51.3209 763.152 51.5716 762.105 51.5716H760.951C760.737 51.5716 760.546 51.488 760.356 51.2971C760.177 51.1179 760.082 50.9151 760.082 50.7002V38.5824C760.082 38.3672 760.165 38.1766 760.356 37.9855C760.534 37.8064 760.737 37.711 760.951 37.711H762.105C763.152 37.711 764.128 37.9615 765.008 38.4629C765.889 38.9644 766.603 39.7404 767.138 40.7791C767.674 41.8296 767.947 43.131 767.947 44.6472ZM783.744 45.5189C783.216 44.9098 782.197 44.3965 780.998 44.1218C782.653 43.2981 783.504 42.1401 783.504 40.6476C783.504 39.836 783.289 39.1076 782.857 38.4869C782.425 37.8663 781.813 37.3646 781.034 37.0184C780.254 36.6722 779.342 36.4932 778.31 36.4932H771.845V37.3646H772.361C772.577 37.3646 772.769 37.4481 772.961 37.639C773.141 37.8183 773.237 38.0213 773.237 38.2362V51.082C773.237 51.2971 773.141 51.4999 772.961 51.6792C772.781 51.8582 772.577 51.9536 772.361 51.9536H771.797V52.8253H778.815C779.882 52.8253 780.877 52.6463 781.777 52.288C782.677 51.9299 783.397 51.4045 783.913 50.7121C784.44 50.0197 784.704 49.1718 784.704 48.1929C784.692 47.1425 784.38 46.2468 783.744 45.5189ZM775.696 51.309C775.516 51.13 775.42 50.927 775.42 50.7121V44.9454H778.755C779.93 44.9454 780.829 45.2439 781.453 45.8406C782.077 46.4377 782.389 47.2137 782.389 48.1689C782.389 48.7418 782.244 49.3031 781.982 49.8165C781.705 50.3417 781.297 50.7596 780.746 51.082C780.205 51.4042 779.534 51.5716 778.755 51.5716H776.295C776.079 51.5716 775.887 51.4878 775.696 51.3088L775.696 51.309ZM775.432 43.716V38.5942C775.432 38.3794 775.516 38.1885 775.708 37.9973C775.888 37.8183 776.092 37.7229 776.308 37.7229H777.891C779.03 37.7229 779.87 38.0094 780.398 38.5586C780.925 39.1197 781.189 39.836 781.189 40.7193C781.189 41.6268 780.937 42.355 780.446 42.9042C779.954 43.4413 779.21 43.716 778.227 43.716H775.432ZM709.415 41.6654C708.498 41.1659 707.475 40.9038 706.367 40.9038C705.29 40.9038 704.28 41.1409 703.392 41.6258L703.32 41.6654C702.404 42.1651 701.678 42.8909 701.142 43.807C700.606 44.7231 700.333 45.7941 700.333 46.9837C700.333 48.1736 700.606 49.2445 701.142 50.1607C701.678 51.0768 702.404 51.8026 703.32 52.3021C704.237 52.8018 705.261 53.0636 706.367 53.0636C707.446 53.0636 708.456 52.8268 709.343 52.3421L709.415 52.3023C710.331 51.8026 711.058 51.0768 711.593 50.1607C712.129 49.2445 712.403 48.1736 712.403 46.9837C712.403 45.7941 712.129 44.7231 711.593 43.807C711.058 42.8909 710.332 42.1649 709.415 41.6654ZM710.296 46.9837C710.296 48.4473 709.939 49.6369 709.224 50.4937C708.522 51.3503 707.558 51.7904 706.367 51.7904C705.198 51.7904 704.248 51.3659 703.549 50.5392L703.511 50.4937C702.797 49.6369 702.439 48.4473 702.439 46.9837C702.439 45.5471 702.784 44.374 703.472 43.5209L703.511 43.4739C704.213 42.6174 705.177 42.177 706.367 42.177C707.558 42.177 708.522 42.6171 709.224 43.4739C709.939 44.3307 710.296 45.5203 710.296 46.9837ZM751.6 41.6654C750.684 41.1659 749.66 40.9038 748.553 40.9038C747.475 40.9038 746.465 41.1409 745.578 41.6258L745.506 41.6654C744.589 42.1651 743.863 42.8909 743.328 43.807C742.792 44.7231 742.518 45.7941 742.518 46.9837C742.518 48.1736 742.792 49.2445 743.328 50.1607C743.863 51.0768 744.589 51.8026 745.506 52.3021C746.422 52.8018 747.446 53.0636 748.553 53.0636C749.631 53.0636 750.641 52.8268 751.529 52.3421L751.601 52.3023C752.517 51.8026 753.243 51.0768 753.779 50.1607C754.314 49.2445 754.588 48.1736 754.588 46.9837C754.588 45.7941 754.314 44.7231 753.779 43.807C753.243 42.8909 752.505 42.1649 751.6 41.6654ZM752.481 46.9837C752.481 48.4473 752.124 49.6369 751.41 50.4937C750.708 51.3503 749.744 51.7904 748.553 51.7904C747.384 51.7904 746.433 51.3659 745.734 50.5392L745.696 50.4937C744.982 49.6369 744.625 48.4473 744.625 46.9837C744.625 45.5352 744.969 44.3735 745.658 43.5209L745.696 43.4739C746.399 42.6174 747.363 42.177 748.553 42.177C749.744 42.177 750.708 42.6171 751.41 43.4739C752.112 44.3307 752.481 45.5203 752.481 46.9837ZM734.588 40.904C733.629 40.904 732.753 41.107 731.962 41.5135C731.171 41.9198 730.548 42.4697 730.104 43.175C729.663 43.8593 729.43 44.6563 729.433 45.4699C729.433 46.211 729.601 46.8922 729.948 47.502C730.284 48.0875 730.739 48.5776 731.315 48.9839L729.601 51.3028C729.385 51.5897 729.361 51.9722 729.517 52.283C729.684 52.6057 729.996 52.7968 730.356 52.7968H730.848C730.388 53.1062 730.016 53.4704 729.754 53.8997L729.72 53.9563C729.409 54.4701 729.253 55.0082 729.253 55.5579C729.253 56.5675 729.692 57.4043 730.56 58.0338L730.608 58.068C731.495 58.7015 732.742 59.0242 734.312 59.0242C735.403 59.0242 736.446 58.8449 737.393 58.4982C738.325 58.1617 739.086 57.6669 739.657 57.0255L739.706 56.9686C740.294 56.299 740.594 55.4862 740.594 54.554C740.594 53.5738 740.234 52.8804 739.395 52.2113C738.676 51.6495 737.549 51.3508 736.146 51.3508H731.351C731.344 51.3502 731.337 51.3474 731.332 51.3429L731.327 51.3387L731.325 51.3337C731.322 51.3261 731.318 51.3115 731.327 51.3028L732.574 49.6295C732.869 49.7667 733.179 49.8709 733.497 49.9401C733.784 49.9999 734.108 50.0239 734.468 50.0239C735.475 50.0239 736.386 49.8207 737.177 49.4144C737.968 49.0079 738.604 48.4582 739.059 47.7527C739.515 47.0596 739.743 46.2827 739.743 45.458C739.743 44.5735 739.311 42.9598 738.136 42.1352C738.136 42.1278 738.14 42.125 738.144 42.1238L738.148 42.1231L740.726 42.4099V41.2267H736.602C735.954 41.0234 735.283 40.904 734.588 40.904ZM736.026 48.3865C735.571 48.6254 735.079 48.7569 734.588 48.7569C733.785 48.7569 733.077 48.4701 732.478 47.9083C731.878 47.3465 731.579 46.5218 731.579 45.4699C731.579 44.418 731.878 43.5931 732.478 43.0315C733.077 42.4697 733.784 42.1829 734.588 42.1829C735.07 42.1829 735.531 42.2927 735.969 42.5227L736.026 42.5533C736.482 42.7924 736.853 43.1631 737.153 43.6532C737.441 44.1433 737.597 44.7528 737.597 45.4699C737.597 46.1991 737.453 46.8086 737.153 47.2866C736.866 47.7767 736.482 48.1474 736.026 48.3865ZM732.778 52.785H736.026C736.925 52.785 737.501 52.9642 737.884 53.3468C738.268 53.7293 738.46 54.2431 738.46 54.8408C738.46 55.7134 738.112 56.4308 737.417 56.9683C736.722 57.5064 735.787 57.7811 734.636 57.7811C733.629 57.7811 732.789 57.5541 732.178 57.1239C731.567 56.6936 731.255 56.0359 731.255 55.1993C731.255 54.6734 731.399 54.1833 731.687 53.753C731.974 53.3228 732.322 53.012 732.777 52.785H732.778Z" fill="#303030"/>
</g>
<path d="M953.867 53.1458C953.684 53.1458 953.503 53.0978 953.342 53.0044L951.67 52.0147C951.42 51.8752 951.541 51.8253 951.624 51.7969C951.957 51.6808 952.025 51.6536 952.38 51.4529C952.418 51.4321 952.466 51.4396 952.505 51.4624L953.789 52.2255C953.813 52.2382 953.84 52.2449 953.867 52.2449C953.894 52.2449 953.921 52.2382 953.944 52.2255L958.954 49.3339C958.978 49.32 958.997 49.3002 959.011 49.2764C959.024 49.2526 959.031 49.2256 959.031 49.1982V43.4164C959.031 43.3887 959.024 43.3614 959.011 43.3372C958.997 43.3129 958.977 43.2926 958.954 43.2782L953.946 40.3892C953.922 40.3762 953.895 40.3693 953.868 40.3693C953.841 40.3693 953.815 40.3762 953.791 40.3892L948.784 43.2788C948.76 43.2932 948.74 43.3134 948.726 43.3374C948.713 43.3615 948.705 43.3887 948.705 43.4164V49.1982C948.705 49.2538 948.736 49.3062 948.784 49.3321L950.156 50.1255C950.901 50.4972 951.357 50.0592 951.357 49.6186V43.9094C951.357 43.8292 951.422 43.7655 951.502 43.7655H952.138C952.217 43.7655 952.282 43.8292 952.282 43.9094V49.6186C952.282 50.6121 951.742 51.1821 950.799 51.1821C950.509 51.1821 950.282 51.1821 949.645 50.869L948.332 50.1128C948.172 50.0197 948.039 49.8863 947.947 49.7259C947.855 49.5656 947.807 49.3838 947.807 49.1989V43.4171C947.807 43.0415 948.007 42.6912 948.332 42.5044L953.342 39.609C953.503 39.5211 953.684 39.4751 953.868 39.4751C954.052 39.4751 954.232 39.5211 954.394 39.609L959.404 42.5044C959.728 42.6918 959.929 43.0421 959.929 43.4171V49.1989C959.929 49.3838 959.88 49.5655 959.788 49.7258C959.696 49.8862 959.563 50.0196 959.404 50.1128L954.394 53.005C954.234 53.0978 954.052 53.1464 953.867 53.1458ZM955.416 49.1623C953.222 49.1623 952.763 48.1555 952.763 47.3116C952.764 47.2732 952.779 47.2364 952.806 47.2093C952.833 47.1822 952.87 47.167 952.909 47.167H953.556C953.591 47.1669 953.624 47.1792 953.651 47.2016C953.677 47.2241 953.695 47.2553 953.7 47.2895C953.797 47.9491 954.09 48.2817 955.416 48.2817C956.47 48.2817 956.92 48.0431 956.92 47.4826C956.92 47.1595 956.792 46.9202 955.153 46.7593C953.782 46.6236 952.934 46.3212 952.934 45.2236C952.934 44.213 953.786 43.6096 955.214 43.6096C956.819 43.6096 957.613 44.1669 957.713 45.3624C957.715 45.3826 957.712 45.4028 957.706 45.4219C957.699 45.441 957.689 45.4586 957.675 45.4735C957.662 45.4879 957.645 45.4994 957.627 45.5073C957.609 45.5152 957.589 45.5194 957.569 45.5196H956.919C956.886 45.5197 956.854 45.5085 956.828 45.4879C956.803 45.4674 956.785 45.4387 956.778 45.4066C956.621 44.7123 956.243 44.4907 955.213 44.4907C954.061 44.4907 953.927 44.8928 953.927 45.1926C953.927 45.5568 954.085 45.6629 955.641 45.8687C957.181 46.0725 957.912 46.3604 957.912 47.4429C957.913 48.5367 957.003 49.1623 955.416 49.1623Z" fill="#404137"/>
<path d="M943.551 45.3701C943.749 45.2546 943.871 45.0437 943.871 44.8146V43.3288C943.871 43.1003 943.75 42.8894 943.551 42.7739L938.272 39.7088C938.174 39.6521 938.064 39.622 937.951 39.6218C937.838 39.6216 937.727 39.6512 937.629 39.7076L932.317 42.7746C932.219 42.831 932.138 42.9119 932.082 43.0094C932.026 43.1069 931.996 43.2175 931.996 43.33V49.4628C931.996 49.6932 932.12 49.9065 932.321 50.0207L937.599 53.0284C937.794 53.1401 938.032 53.1408 938.229 53.0322L941.421 51.2573C941.471 51.2297 941.512 51.1894 941.541 51.1405C941.57 51.0916 941.586 51.0359 941.586 50.9791C941.587 50.9222 941.572 50.8663 941.544 50.817C941.515 50.7678 941.474 50.7269 941.425 50.6987L936.08 47.631C936.031 47.6031 935.99 47.5627 935.962 47.5139C935.933 47.4651 935.918 47.4097 935.918 47.3533V45.4307C935.918 45.3158 935.98 45.2104 936.079 45.1536L937.743 44.1941C937.792 44.1659 937.847 44.1511 937.903 44.1511C937.959 44.1511 938.015 44.1659 938.063 44.1941L939.728 45.1536C939.776 45.1815 939.817 45.2219 939.845 45.2705C939.874 45.3192 939.889 45.3744 939.889 45.4307V46.943C939.888 46.9996 939.903 47.0552 939.931 47.1042C939.959 47.1533 940 47.194 940.049 47.2222C940.098 47.2504 940.154 47.2652 940.21 47.2649C940.267 47.2646 940.322 47.2494 940.371 47.2207L943.551 45.3701Z" fill="#404137"/>
<path d="M937.872 45.0822C937.89 45.0717 937.912 45.0662 937.933 45.0662C937.955 45.0662 937.976 45.0717 937.995 45.0822L939.014 45.6711C939.052 45.6932 939.075 45.7342 939.075 45.7778V46.955C939.075 46.9991 939.052 47.0395 939.014 47.0616L937.995 47.6499C937.976 47.6608 937.955 47.6665 937.933 47.6665C937.912 47.6665 937.89 47.6608 937.872 47.6499L936.853 47.0616C936.834 47.0509 936.818 47.0354 936.808 47.0166C936.797 46.9979 936.791 46.9766 936.791 46.955V45.7778C936.791 45.7342 936.814 45.6932 936.853 45.6711L937.872 45.0822Z" fill="#404137"/>
<path d="M924.048 47.5311C924.048 47.5879 924.017 47.6409 923.968 47.67L922.143 48.7216C922.119 48.7358 922.091 48.7433 922.063 48.7433C922.035 48.7433 922.007 48.7358 921.983 48.7216L920.159 47.67C920.135 47.6559 920.114 47.6356 920.1 47.6112C920.086 47.5869 920.079 47.5592 920.079 47.5311V45.4242C920.079 45.3674 920.11 45.3137 920.159 45.2847L921.983 44.2318C922.007 44.2173 922.035 44.2096 922.064 44.2096C922.092 44.2096 922.12 44.2173 922.144 44.2318L923.969 45.2847C923.993 45.2991 924.013 45.3195 924.027 45.3439C924.041 45.3684 924.048 45.396 924.048 45.4242L924.048 47.5311ZM924.541 31.9304C924.492 31.9036 924.437 31.89 924.381 31.8909C924.325 31.8918 924.271 31.9071 924.223 31.9353C924.175 31.9635 924.135 32.0037 924.107 32.052C924.079 32.1002 924.064 32.1549 924.063 32.2106V40.3626C924.063 40.4019 924.053 40.4405 924.033 40.4746C924.014 40.5086 923.986 40.5371 923.952 40.557C923.918 40.5765 923.879 40.5868 923.839 40.5868C923.8 40.5868 923.761 40.5765 923.727 40.557L922.396 39.7901C922.299 39.734 922.189 39.7044 922.076 39.7044C921.964 39.7044 921.853 39.734 921.756 39.7901L916.442 42.8564C916.345 42.9128 916.264 42.9939 916.207 43.0915C916.151 43.1891 916.121 43.2998 916.121 43.4125V49.5472C916.121 49.7763 916.244 49.9877 916.442 50.1033L921.755 53.1715C921.953 53.2864 922.198 53.2864 922.397 53.1715L927.712 50.1033C927.809 50.0467 927.89 49.9656 927.946 49.868C928.003 49.7704 928.032 49.6598 928.032 49.5472V34.2551C928.032 34.0228 927.906 33.8082 927.704 33.6946L924.541 31.9304Z" fill="#404137"/>
<path d="M905.841 39.6747C905.939 39.6183 906.049 39.5886 906.162 39.5886C906.274 39.5886 906.385 39.6183 906.482 39.6747L911.796 42.7405C911.994 42.8554 912.117 43.0674 912.117 43.2966V49.4331C912.117 49.6622 911.994 49.8743 911.796 49.9892L906.483 53.0574C906.385 53.1136 906.275 53.1432 906.162 53.1432C906.05 53.1432 905.939 53.1136 905.841 53.0574L900.53 49.9892C900.432 49.9326 900.351 49.8515 900.295 49.754C900.239 49.6564 900.209 49.5457 900.209 49.4331V43.2959C900.209 43.0674 900.331 42.8554 900.53 42.7405L905.841 39.6747Z" fill="#404137"/>
<path d="M896.179 43.2453C896.179 43.0143 896.058 42.8022 895.858 42.688L890.547 39.6311C890.457 39.5794 890.357 39.5505 890.254 39.5471H890.199C890.096 39.5506 889.995 39.5794 889.906 39.6311L884.594 42.688C884.496 42.7445 884.415 42.8258 884.358 42.9236C884.302 43.0215 884.272 43.1324 884.272 43.2453L884.284 51.4762C884.284 51.5911 884.344 51.6977 884.444 51.7533C884.492 51.7824 884.547 51.7978 884.604 51.7978C884.66 51.7978 884.715 51.7824 884.763 51.7533L887.919 49.9455C888.118 49.8268 888.24 49.6179 888.24 49.3888V45.5435C888.24 45.3138 888.361 45.1023 888.56 44.9874L889.905 44.2136C890.002 44.1565 890.113 44.1266 890.225 44.1271C890.335 44.1271 890.447 44.1549 890.545 44.2136L891.889 44.9874C892.087 45.1023 892.21 45.3138 892.21 45.5435V49.3888C892.21 49.6179 892.333 49.8281 892.531 49.9455L895.687 51.7533C895.736 51.7811 895.791 51.7956 895.847 51.7955C895.903 51.7954 895.958 51.7806 896.007 51.7525C896.055 51.7245 896.095 51.6842 896.124 51.6357C896.152 51.5872 896.167 51.5322 896.167 51.4762L896.179 43.2453Z" fill="#404137"/>
<g clip-path="url(#clip2_356_16676)">
<path d="M1142.03 54.1962C1141.79 52.2739 1140.82 50.6065 1139.13 49.2341C1139.11 49.2085 1139.08 49.1847 1139.06 49.1631L1138.97 49.1019L1138.94 49.0825L1138.05 48.4374L1138.02 48.4149L1137.9 48.3342C1137.86 48.3097 1137.81 48.2908 1137.77 48.2778C1134.93 46.5861 1130.22 45.4008 1123.02 47.9407C1121.31 45.0509 1121.11 42.7351 1122.26 39.1873C1122.47 38.5696 1122.28 38.1616 1121.66 37.8972C1120.43 37.3731 1118.74 37.6408 1117.55 37.9568C1116.99 38.102 1116.65 38.4181 1116.55 38.897C1115.79 42.4448 1113.59 45.6863 1111.46 48.8148L1111.33 48.9986C1110.02 46.2152 1110.29 44.0591 1111.21 41.3579C1111.39 40.8193 1111.24 40.4613 1110.74 40.1936C1109.33 39.4663 1107.22 39.9662 1106.37 40.2146C1105.31 40.5258 1104.16 43.4108 1102.88 46.8651C1102.56 47.7343 1102.28 48.4778 1102.12 48.8245C1101.72 49.6308 1101.34 50.55 1100.94 51.5257C1100.04 53.7334 1099.02 56.2185 1097.57 57.7795C1097.04 56.6103 1097.87 54.7671 1098.68 52.9787C1099.64 50.8645 1100.54 48.8664 1099.5 47.5908C1099.33 47.3891 1099.13 47.2233 1098.9 47.1035C1098.67 46.9836 1098.42 46.9124 1098.16 46.8941C1097.82 46.8684 1097.48 46.9236 1097.16 47.0554C1097.27 46.1443 1097.28 45.425 1097.01 44.5558C1096.63 43.3157 1095.64 42.6206 1094.28 42.6577C1091.18 42.748 1088.56 45.0573 1086.9 46.9796C1085.8 48.2697 1083.36 49.2534 1081.21 50.1162C1080.36 50.4758 1079.55 50.7984 1078.88 51.1209C1077.81 50.2146 1076.45 49.3002 1075.01 48.3342C1070.98 45.6282 1066.41 42.5593 1066.25 38.3987C1066.03 32.2529 1073.03 27.8939 1079.13 24.7831C1083.76 22.4287 1087.79 20.8676 1091.44 20.0145C1096.57 18.8163 1100.9 19.0582 1104.31 20.7305C1106.18 21.6449 1107.05 23.6333 1106.5 25.6781C1105.05 30.9918 1099.03 34.6332 1093.89 36.2716C1090.79 37.2586 1088.16 37.6714 1085.83 37.5359C1082.91 37.3666 1080.53 35.9023 1079.51 35.2782C1079.34 35.1667 1079.17 35.0696 1078.99 34.988L1078.94 34.9767C1078.85 34.9537 1078.76 34.9566 1078.66 34.985C1078.57 35.0135 1078.49 35.0664 1078.43 35.1379C1078.22 35.3879 1078.29 35.783 1078.37 35.983C1079.36 38.5745 1081.41 40.2113 1084.46 40.8483C1085.45 41.048 1086.47 41.1447 1087.49 41.137C1094.61 41.137 1103.71 37.0263 1107.05 33.6414C1109.33 31.3353 1110.99 28.9647 1111.68 24.8767C1112.4 20.5951 1109.49 17.6197 1106.54 16.249C1099.35 12.9318 1091.18 14.2429 1085.6 15.9265C1079.07 17.8955 1072.31 21.4756 1067.07 25.7523C1060.6 31.0208 1058.26 35.912 1060.11 40.3065C1062.02 44.8106 1066.66 47.6279 1071.15 50.3533C1072.6 51.2322 1073.98 52.0691 1075.23 52.9335C1074.85 53.1157 1074.47 53.3012 1074.08 53.4866C1070.31 55.3138 1066.04 57.3699 1063.66 60.7677C1061.94 63.2432 1061.62 65.7073 1062.71 68.0924C1063.29 69.3615 1064.32 70.2227 1065.75 70.6517C1066.5 70.863 1067.27 70.9656 1068.04 70.9565C1070.84 70.9565 1073.91 69.8276 1075.58 68.7842C1078.53 66.9297 1080.45 64.4397 1081.27 61.3838C1082 58.6649 1081.83 55.9637 1080.76 53.5528L1084.38 51.7272C1082.64 57.5328 1083.98 61 1085.45 62.9126C1085.99 63.6173 1086.97 64.0414 1088.06 64.0608C1089.15 64.0801 1090.15 63.6689 1090.72 62.969C1091.8 61.6386 1092.59 60.0824 1093.32 58.5262C1093.28 59.5421 1093.33 60.571 1093.68 61.4434C1093.99 62.2288 1094.5 62.7497 1095.16 62.9497C1095.86 63.1641 1096.69 62.9835 1097.48 62.4417C1101.06 59.9953 1103.5 54.1236 1105.47 49.4034C1105.75 48.7326 1106.01 48.0875 1106.27 47.4844C1106.76 49.2235 1107.43 50.9038 1108.29 52.4949C1108.48 52.84 1108.46 52.9916 1108.2 53.2754C1107.82 53.7011 1107.27 54.2156 1106.7 54.7606C1104.96 56.4104 1102.8 58.4697 1102.51 60.2807C1102.39 61.0064 1102.89 61.6676 1103.67 61.8176C1106 62.282 1108.81 61.6031 1111.19 60.0033C1113.35 58.552 1114.16 56.5281 1113.61 54.0059C1113.07 51.5773 1114.3 48.5616 1117.25 45.0364C1117.74 47.057 1118.38 48.6906 1119.27 50.121L1119.25 50.1404C1117.1 52.0191 1114.15 54.5913 1114.61 57.7118C1114.64 58.0085 1114.74 58.294 1114.9 58.55C1115.05 58.8061 1115.26 59.027 1115.51 59.1986C1115.77 59.3755 1116.06 59.4963 1116.37 59.5534C1116.69 59.6106 1117 59.6029 1117.31 59.5308C1120.13 58.939 1122.25 57.7473 1123.79 55.8911C1125.33 54.0349 1124.77 51.9772 1124.25 50.3807C1128.28 49.2873 1131.87 49.3147 1135.23 50.4613C1137.12 51.1064 1138.47 52.1659 1139.25 53.6286C1140.24 55.4686 1139.71 57.1667 1137.76 58.4101C1137.16 58.7923 1136.87 59.0261 1136.85 59.3212C1136.85 59.3897 1136.86 59.4581 1136.89 59.5207C1136.92 59.5833 1136.96 59.6382 1137.01 59.6808C1137.24 59.8663 1137.94 60.1888 1139.51 59.197C1140.96 58.2859 1141.81 57.0458 1142.03 55.4879C1142.08 55.0584 1142.07 54.6256 1142.03 54.1962ZM1077.57 58.2375L1077.55 58.4439C1077.3 60.8048 1076.1 62.8626 1073.98 64.572C1072.65 65.646 1071.2 66.3056 1069.91 66.4314C1069 66.5184 1068.35 66.3959 1067.96 66.0653C1067.67 65.8186 1067.51 65.4493 1067.47 64.9364C1067.21 60.8274 1073.65 56.7442 1077.28 55.4009C1077.54 56.3227 1077.64 57.2825 1077.57 58.2375ZM1094.07 46.649C1093.48 50.0501 1091.74 56.47 1089 58.9616C1088.87 59.0809 1088.76 59.1228 1088.71 59.1116C1088.66 59.1003 1088.62 59.0406 1088.58 58.9503C1087.67 56.8345 1088.01 53.2609 1089.39 50.4533C1090.45 48.2891 1091.97 46.8554 1093.66 46.4216C1093.74 46.4022 1093.81 46.3919 1093.88 46.391C1093.94 46.387 1093.99 46.4023 1094.04 46.4345C1094.06 46.4661 1094.08 46.5015 1094.08 46.5385C1094.09 46.5755 1094.08 46.6131 1094.07 46.649ZM1107.54 59.0471C1107.02 59.5841 1106.32 59.5115 1106.48 59.3148L1109.1 56.5345C1108.89 57.4908 1108.27 58.2827 1107.54 59.0471ZM1118.4 56.6426C1118.15 56.7653 1117.88 56.8413 1117.61 56.8668C1117.53 55.4041 1118.95 53.7576 1120.35 52.6594C1120.72 54.1849 1119.95 55.7976 1118.4 56.6426Z" fill="#404137"/>
</g>
<g clip-path="url(#clip3_356_16676)">
<path d="M1271.71 40.1649V61.4365C1271.71 61.5847 1271.68 61.8441 1271.49 61.9183C1271.49 61.9183 1266.86 65.2165 1259.23 65.2165C1250 65.2165 1239.07 62.3259 1239.07 43.2778C1239.07 24.2298 1248.63 20.3016 1257.97 20.3386C1266.04 20.3386 1269.31 22.1545 1269.82 22.488C1269.97 22.6733 1270.05 22.8216 1270.05 23.0068L1268.49 29.6033C1268.49 29.9368 1268.16 30.3444 1267.75 30.2333C1266.42 29.8256 1264.41 29.0103 1259.71 29.0103C1254.26 29.0103 1248.41 30.5668 1248.41 42.8331C1248.41 55.0995 1253.96 56.5448 1257.97 56.5448C1261.38 56.5448 1262.6 56.1371 1262.6 56.1371V47.6137H1257.15C1256.74 47.6137 1256.45 47.3172 1256.45 46.9837V40.1649C1256.45 39.8314 1256.74 39.5349 1257.15 39.5349H1271.01C1271.42 39.5349 1271.71 39.8314 1271.71 40.1649ZM1404.57 48.7996C1404.57 61.5106 1400.46 65.1423 1393.27 65.1423C1387.19 65.1423 1383.93 62.0665 1383.93 62.0665C1383.93 62.0665 1383.78 63.7712 1383.59 63.9935C1383.48 64.2159 1383.3 64.29 1383.08 64.29H1377.59C1377.22 64.29 1376.89 63.9935 1376.89 63.66L1376.96 22.488C1376.96 22.1545 1377.26 21.858 1377.59 21.858H1385.48C1385.82 21.858 1386.11 22.1545 1386.11 22.488V36.4591C1386.11 36.4591 1389.15 34.495 1393.6 34.495L1393.56 34.4209C1398.01 34.4209 1404.57 36.0885 1404.57 48.7996ZM1341.64 21.9322C1341.98 21.9322 1342.27 22.2286 1342.27 22.5621V63.7341C1342.27 64.0676 1341.98 64.3641 1341.64 64.3641H1333.75C1333.42 64.3641 1333.12 64.0676 1333.12 63.7341L1333.19 46.1313H1320.93V63.7341C1320.93 64.0676 1320.63 64.3641 1320.3 64.3641H1312.41C1312.11 64.3641 1311.78 64.0676 1311.78 63.7341V22.5621C1311.78 22.2286 1312.07 21.9322 1312.41 21.9322H1320.3C1320.63 21.9322 1320.93 22.2286 1320.93 22.5621V37.7191H1333.19V22.5621C1333.19 22.2286 1333.49 21.9322 1333.82 21.9322H1341.64ZM1372.25 35.4214C1372.66 35.4214 1372.96 35.7179 1372.96 36.0514L1372.88 63.7341C1372.88 64.0676 1372.66 64.3641 1372.25 64.3641H1367.29C1367.03 64.3641 1366.77 64.2159 1366.7 64.0306C1366.58 63.8082 1366.4 62.363 1366.4 62.363C1366.4 62.363 1362.21 65.2165 1357.06 65.2165C1350.8 65.2165 1346.24 63.1782 1346.24 55.0254V36.0885C1346.24 35.755 1346.54 35.4585 1346.87 35.4585H1354.8C1355.13 35.4585 1355.43 35.755 1355.43 36.0885V53.6913C1355.43 56.4707 1356.25 57.7306 1359.02 57.7306C1361.8 57.7306 1363.84 56.2854 1363.84 56.2854V36.1256C1363.84 35.7179 1364.06 35.4214 1364.47 35.4214H1372.25ZM1307.75 57.5491H1307.77C1307.92 57.5804 1308.06 57.6641 1308.15 57.7855C1308.25 57.9068 1308.3 58.058 1308.29 58.2124V63.7712C1308.29 64.0306 1308.18 64.29 1307.96 64.3641C1307.59 64.5494 1305.22 65.1794 1303.25 65.1794C1298.95 65.1794 1292.65 64.2529 1292.65 55.2107V43.0555H1288.54C1288.21 43.0555 1287.91 42.759 1287.91 42.3514V37.3114C1287.91 37.015 1288.09 36.7555 1288.39 36.6814C1288.65 36.6444 1292.69 35.6438 1292.69 35.6438V27.6021C1292.69 27.3056 1292.88 27.1203 1293.21 27.1203H1301.21C1301.55 27.1203 1301.73 27.3056 1301.73 27.6021V35.4214H1307.62C1307.92 35.4214 1308.22 35.7179 1308.22 36.0514V42.3514C1308.22 42.759 1307.96 43.0555 1307.62 43.0555H1301.73V54.6585C1301.73 56.4002 1302.73 57.7343 1305.62 57.7343C1306.54 57.7343 1307.41 57.5528 1307.75 57.5491ZM1284.43 35.3844C1284.76 35.3844 1285.06 35.6808 1285.06 36.0144V63.3265C1285.06 63.9935 1284.87 64.3271 1284.13 64.3271H1277.01C1276.38 64.3271 1275.9 64.0676 1275.9 63.3265V36.1256C1275.9 35.7179 1276.2 35.3844 1276.53 35.3844H1284.43ZM1395.56 49.3925C1395.56 42.6849 1392.86 41.7955 1390.01 42.092C1387.78 42.2402 1386 43.352 1386 43.352V56.3965C1386 56.3965 1387.82 57.6565 1390.52 57.7306C1394.34 57.8418 1395.56 56.4707 1395.56 49.3925ZM1280.53 22.8586C1283.31 22.8586 1285.57 25.1192 1285.57 27.9727C1285.57 30.8262 1283.31 33.0868 1280.53 33.0868C1277.68 33.0868 1275.42 30.8262 1275.42 27.9727C1275.42 25.1192 1277.68 22.8586 1280.53 22.8586ZM1307.74 57.5083V57.512L1307.77 57.5491H1307.77L1307.75 57.5454V57.5491C1307.72 57.5454 1307.7 57.5083 1307.66 57.5083H1307.74Z" fill="#404137"/>
</g>
<defs>
<clipPath id="clip0_356_16676">
<rect width="85.4703" height="79.181" fill="white" transform="translate(293.171 2.9834)"/>
</clipPath>
<clipPath id="clip1_356_16676">
<rect width="126.915" height="33.3818" fill="white" transform="translate(657.789 25.8831)"/>
</clipPath>
<clipPath id="clip2_356_16676">
<rect width="82.5676" height="82.5676" fill="white" transform="translate(1059.5 1.29004)"/>
</clipPath>
<clipPath id="clip3_356_16676">
<rect width="166.763" height="59.2936" fill="white" transform="translate(1239.07 12.927)"/>
</clipPath>
</defs>
</svg>
